<?xml version="1.0" encoding="UTF-8"?>
<svg width="400px" height="400px" viewBox="0 0 400 400" version="1.1" xmlns="http://www.w3.org/2000/svg" xmlns:xlink="http://www.w3.org/1999/xlink">
    <!-- Generator: Sketch 45.2 (43514) - http://www.bohemiancoding.com/sketch -->
    <title>justBull</title>
    <desc>Created with Sketch.</desc>
    <defs>
        <filter x="-6.6%" y="-4.1%" width="112.8%" height="110.1%" filterUnits="objectBoundingBox" id="filter-1">
            <feOffset dx="0" dy="3" in="SourceAlpha" result="shadowOffsetOuter1"></feOffset>
            <feGaussianBlur stdDeviation="5" in="shadowOffsetOuter1" result="shadowBlurOuter1"></feGaussianBlur>
            <feColorMatrix values="0 0 0 0 0   0 0 0 0 0   0 0 0 0 0  0 0 0 0.839362545 0" type="matrix" in="shadowBlurOuter1" result="shadowMatrixOuter1"></feColorMatrix>
            <feMerge>
                <feMergeNode in="shadowMatrixOuter1"></feMergeNode>
                <feMergeNode in="SourceGraphic"></feMergeNode>
            </feMerge>
        </filter>
        <path d="M18.1029025,67.7168783 C14.8650708,62.317727 12.5779116,58.2028742 11.2414247,55.3723198 C9.23669452,51.1264883 6.60764337,47.672473 6.19585342,43.7148799 C5.3213277,35.3100682 7.47305089,25.8452596 12.651023,15.320454 C11.470706,21.7296865 11.00084,26.3781944 11.2414247,29.2659777 C11.4820095,32.1537611 12.6052506,35.3478335 14.6111481,38.8481951 C13.4944255,33.625415 13.1433549,29.1220502 13.5579362,25.3381006 C13.9725175,21.5541511 15.2469108,17.6302031 17.3811161,13.5662565 C18.407463,12.4125224 19.1463523,10.8489985 19.5977839,8.87568483 C20.0492155,6.90237113 20.3002114,4.13887444 20.3507715,0.58519475 C22.6906252,3.31575277 24.1704838,5.6403534 24.7903473,7.55899664 C25.4102107,9.47763988 25.7959493,12.9275617 25.947563,17.9087621 C25.203177,20.1746533 24.8174384,21.8763867 24.7903473,23.0139623 C24.7632561,24.1515378 25.0750364,25.555358 25.7256882,27.2254231 C26.6250951,24.4450564 27.5165233,22.4444854 28.3999727,21.2237101 C29.2834221,20.0029348 30.0759311,19.6765939 30.7774997,20.2446876 C28.8260359,23.5442327 28.0335269,25.8711445 28.3999727,27.2254231 C28.5387395,27.7382652 29.9908938,27.866279 30.7774997,29.2659777 C31.3019037,30.1991102 33.1346819,33.9654347 36.2758343,40.5649513 C36.752379,43.758793 36.9711337,46.07542 36.9320983,47.5148323 C36.8930629,48.9542446 36.5490414,51.2567733 35.9000339,54.4224184 C32.3019584,59.4957642 29.801938,62.7700351 28.3999727,64.2452312 C26.9980074,65.7204273 24.9804492,67.1997081 22.3472979,68.6830736 L18.1029025,67.7168783 Z" id="path-2"></path>
        <filter x="-11.3%" y="-5.1%" width="122.6%" height="110.3%" filterUnits="objectBoundingBox" id="filter-3">
            <feGaussianBlur stdDeviation="2" in="SourceAlpha" result="shadowBlurInner1"></feGaussianBlur>
            <feOffset dx="0" dy="3" in="shadowBlurInner1" result="shadowOffsetInner1"></feOffset>
            <feComposite in="shadowOffsetInner1" in2="SourceAlpha" operator="arithmetic" k2="-1" k3="1" result="shadowInnerInner1"></feComposite>
            <feColorMatrix values="0 0 0 0 0.247058824   0 0 0 0 0.2   0 0 0 0 0.160784314  0 0 0 1 0" type="matrix" in="shadowInnerInner1"></feColorMatrix>
        </filter>
        <path d="M1.03657127,104.132078 C8.11692854,108.317232 13.4255139,110.784434 16.9623274,111.533682 C20.499141,112.28293 24.1011395,111.713683 27.7683229,109.825939 C30.2054281,107.438682 31.3453098,105.170937 31.1879681,103.022704 C31.0306264,100.874471 29.3721123,96.0611745 26.212426,88.5828153 C23.8955875,85.3082434 22.2324511,82.5590761 21.2230167,80.3353134 C20.2135823,78.1115507 19.6267697,75.9041277 19.462579,73.7130444 C18.825735,70.0240906 18.5856018,67.2367886 18.7421793,65.3511384 C18.8987567,63.4654881 19.5535185,61.2594518 20.7064645,58.7330295 C21.7970719,67.9177759 22.7814102,73.6731154 23.6594792,75.9990481 C24.5375483,78.3249807 27.8102014,83.9978106 33.4774385,93.0175376 C35.0343572,95.6070381 36.0002058,97.5771014 36.3749846,98.9277272 C36.7497633,100.278353 36.7497633,102.955527 36.3749846,106.959248 C34.8976229,110.321448 33.6395236,112.488656 32.6006864,113.460872 C31.5618493,114.433089 28.9871773,115.852856 24.8766704,117.720175 C21.2011575,118.547086 18.4408965,118.929589 16.5958874,118.867684 C14.7508783,118.805779 11.0843974,118.207641 5.59644482,117.073271 L0.42433553,112.386513 L1.03657127,104.132078 Z" id="path-4"></path>
        <filter x="-12.4%" y="-7.5%" width="124.8%" height="115.0%" filterUnits="objectBoundingBox" id="filter-5">
            <feGaussianBlur stdDeviation="1.5" in="SourceAlpha" result="shadowBlurInner1"></feGaussianBlur>
            <feOffset dx="-5" dy="-6" in="shadowBlurInner1" result="shadowOffsetInner1"></feOffset>
            <feComposite in="shadowOffsetInner1" in2="SourceAlpha" operator="arithmetic" k2="-1" k3="1" result="shadowInnerInner1"></feComposite>
            <feColorMatrix values="0 0 0 0 0.392156863   0 0 0 0 0.250980392   0 0 0 0 0.235294118  0 0 0 1 0" type="matrix" in="shadowInnerInner1"></feColorMatrix>
        </filter>
        <path d="M9.84361359,1.40959825 C7.36574823,3.61022739 5.82799418,5.47177996 5.23035142,6.99425597 C4.63270866,8.51673198 4.38113501,11.2134351 4.47563046,15.0843654 C5.83532402,16.7077396 6.85883703,17.6672325 7.54616951,17.9628441 C8.57716822,18.4062615 13.9871578,18.7943267 15.8994397,18.5879069 C18.3744146,18.3207477 22.1888016,16.3301149 27.3426007,12.6160084 C27.9186948,11.4205769 28.1914158,10.557654 28.160764,10.0272398 C28.1301121,9.49682564 27.7613608,8.69799879 27.0545101,7.63075927 C23.8755368,3.99814347 20.9521053,1.69965935 18.2842158,0.735306911 C15.6163263,-0.229045532 12.8027923,-0.00428175039 9.84361359,1.40959825 Z" id="path-6"></path>
        <filter x="-4.2%" y="-5.4%" width="108.4%" height="110.8%" filterUnits="objectBoundingBox" id="filter-7">
            <feGaussianBlur stdDeviation="0.5" in="SourceAlpha" result="shadowBlurInner1"></feGaussianBlur>
            <feOffset dx="0" dy="-1" in="shadowBlurInner1" result="shadowOffsetInner1"></feOffset>
            <feComposite in="shadowOffsetInner1" in2="SourceAlpha" operator="arithmetic" k2="-1" k3="1" result="shadowInnerInner1"></feComposite>
            <feColorMatrix values="0 0 0 0 0.333333333   0 0 0 0 0.333333333   0 0 0 0 0.396078431  0 0 0 1 0" type="matrix" in="shadowInnerInner1"></feColorMatrix>
        </filter>
        <path d="M8.30886409,0.678451496 C5.17100027,2.10201568 3.75756493,4.23482458 2.17645299,6.7352865 C1.12237836,8.4022611 0.528516622,10.2153941 0.394867785,12.1746856 C0.572128249,14.8816778 0.953013299,16.5405386 1.53752294,17.1512677 C2.12203257,17.7619968 3.52643064,17.9685022 5.75071713,17.7707837 C6.85933579,13.3175798 7.86759491,10.0114144 8.7754945,7.85228738 C9.68339409,5.6931604 10.8674196,3.78573059 12.3275712,2.12999795 C11.7403423,0.213257525 10.4007733,-0.270591294 8.30886409,0.678451496 Z" id="path-8"></path>
        <filter x="-8.4%" y="-5.7%" width="116.8%" height="111.3%" filterUnits="objectBoundingBox" id="filter-9">
            <feGaussianBlur stdDeviation="0.5" in="SourceAlpha" result="shadowBlurInner1"></feGaussianBlur>
            <feOffset dx="0" dy="-1" in="shadowBlurInner1" result="shadowOffsetInner1"></feOffset>
            <feComposite in="shadowOffsetInner1" in2="SourceAlpha" operator="arithmetic" k2="-1" k3="1" result="shadowInnerInner1"></feComposite>
            <feColorMatrix values="0 0 0 0 0.333333333   0 0 0 0 0.333333333   0 0 0 0 0.396078431  0 0 0 1 0" type="matrix" in="shadowInnerInner1"></feColorMatrix>
        </filter>
        <path d="M18.134797,5.38462373 L26.5923866,0.759921145 C28.1853871,3.72295133 29.0934559,6.02108877 29.3165929,7.65433346 C29.5397299,9.28757816 29.259613,11.5857156 28.4762422,14.5487458 C26.8786962,16.8644671 25.6181701,18.2065784 24.6946638,18.5750798 C23.7711575,18.9435812 21.5845352,18.6246362 18.134797,17.6182448 L18.134797,5.38462373 Z" id="path-10"></path>
        <filter x="-8.9%" y="-5.6%" width="117.8%" height="111.1%" filterUnits="objectBoundingBox" id="filter-11">
            <feGaussianBlur stdDeviation="0.5" in="SourceAlpha" result="shadowBlurInner1"></feGaussianBlur>
            <feOffset dx="0" dy="-1" in="shadowBlurInner1" result="shadowOffsetInner1"></feOffset>
            <feComposite in="shadowOffsetInner1" in2="SourceAlpha" operator="arithmetic" k2="-1" k3="1" result="shadowInnerInner1"></feComposite>
            <feColorMatrix values="0 0 0 0 0.333333333   0 0 0 0 0.333333333   0 0 0 0 0.396078431  0 0 0 1 0" type="matrix" in="shadowInnerInner1"></feColorMatrix>
        </filter>
        <path d="M4.09636325,0.470097204 C7.70205025,2.90830558 10.4278745,4.42722339 12.2738359,5.02685064 C14.1197973,5.62647788 16.0699842,5.62647788 18.1243966,5.02685064 L18.1243966,19.5125008 C13.5630092,19.5270721 10.2254115,19.1676812 8.11160353,18.434328 C5.99779552,17.7009748 3.57820475,15.7339162 0.852831212,12.533152 C0.749244734,9.32043965 0.938300542,6.81833919 1.41999864,5.02685064 C1.90169673,3.23536209 2.79381827,1.71644428 4.09636325,0.470097204 Z" id="path-12"></path>
        <filter x="-5.8%" y="-5.3%" width="111.6%" height="110.5%" filterUnits="objectBoundingBox" id="filter-13">
            <feGaussianBlur stdDeviation="0.5" in="SourceAlpha" result="shadowBlurInner1"></feGaussianBlur>
            <feOffset dx="0" dy="-1" in="shadowBlurInner1" result="shadowOffsetInner1"></feOffset>
            <feComposite in="shadowOffsetInner1" in2="SourceAlpha" operator="arithmetic" k2="-1" k3="1" result="shadowInnerInner1"></feComposite>
            <feColorMatrix values="0 0 0 0 0.333333333   0 0 0 0 0.333333333   0 0 0 0 0.396078431  0 0 0 1 0" type="matrix" in="shadowInnerInner1"></feColorMatrix>
        </filter>
        <path d="M17.0767316,0.646726933 L28.7847868,2.3163347 L27.9479028,9.65831007 C25.7811277,13.2799577 23.8034375,15.2932402 22.0148324,15.6981578 C20.7525806,15.9839156 17.3830161,16.4752893 13.9274964,15.6981578 C11.6238165,15.1800701 10.2065913,14.553505 9.67582078,13.8184623 C9.14797195,11.0726928 9.14797195,9.02358671 9.67582078,7.67114401 C10.2036696,6.31870131 11.7741271,4.3440157 14.3871932,1.7470872 L17.0767316,0.646726933 Z" id="path-14"></path>
        <filter x="-5.1%" y="-6.5%" width="110.3%" height="112.9%" filterUnits="objectBoundingBox" id="filter-15">
            <feGaussianBlur stdDeviation="0.5" in="SourceAlpha" result="shadowBlurInner1"></feGaussianBlur>
            <feOffset dx="0" dy="-1" in="shadowBlurInner1" result="shadowOffsetInner1"></feOffset>
            <feComposite in="shadowOffsetInner1" in2="SourceAlpha" operator="arithmetic" k2="-1" k3="1" result="shadowInnerInner1"></feComposite>
            <feColorMatrix values="0 0 0 0 0.333333333   0 0 0 0 0.333333333   0 0 0 0 0.396078431  0 0 0 1 0" type="matrix" in="shadowInnerInner1"></feColorMatrix>
        </filter>
        <path d="M14.1632383,1.71796614 L4.97346202,0.182176598 C3.3497155,2.29075571 2.2454262,3.92708226 1.66059411,5.09115626 C1.07576202,6.25523025 0.535866701,7.89155681 0.0409081638,10.0001359 C-0.160749386,12.3292789 0.379145928,13.7564423 1.66059411,14.2816259 C2.94204229,14.8068096 5.88442553,14.8068096 10.4877438,14.2816259" id="path-16"></path>
        <filter x="-7.1%" y="-6.9%" width="114.1%" height="113.8%" filterUnits="objectBoundingBox" id="filter-17">
            <feGaussianBlur stdDeviation="0.5" in="SourceAlpha" result="shadowBlurInner1"></feGaussianBlur>
            <feOffset dx="0" dy="-1" in="shadowBlurInner1" result="shadowOffsetInner1"></feOffset>
            <feComposite in="shadowOffsetInner1" in2="SourceAlpha" operator="arithmetic" k2="-1" k3="1" result="shadowInnerInner1"></feComposite>
            <feColorMatrix values="0 0 0 0 0.333333333   0 0 0 0 0.333333333   0 0 0 0 0.396078431  0 0 0 1 0" type="matrix" in="shadowInnerInner1"></feColorMatrix>
        </filter>
        <path d="M38.1563471,198.799809 C36.4094477,204.448269 35.1640971,208.757782 34.4202953,211.728346 C33.6764935,214.69891 32.4311429,220.336655 30.6842435,228.64158 C27.8875024,230.056102 26.1813406,231.169989 25.5657582,231.983242 C24.9501759,232.796495 24.17023,234.967032 23.2259207,238.494855 C22.8452628,247.657214 22.2795241,254.428867 21.5287044,258.809815 C20.7778847,263.190762 19.5494579,266.88786 17.843424,269.901109 C14.3408327,272.568973 11.9115407,275.068094 10.5555482,277.398473 C9.19955561,279.728852 8.55717616,283.031885 8.62840981,287.307572 L3.85299434,292.323951 C9.81282797,291.698805 14.1941605,291.698805 16.9969918,292.323951 C21.2012388,293.261671 28.1259126,298.068757 28.9123207,298.095014 C29.4365927,298.112518 29.4365927,296.321442 28.9123207,292.721785 L31.9361219,289.056486 C31.2030163,286.051763 30.7441393,283.799021 30.5594909,282.298258 C30.3748424,280.797496 30.3748424,279.320635 30.5594909,277.867676 C32.3012438,269.326716 34.0407696,262.974096 35.7780684,258.809815 C37.5153671,254.645533 39.6509101,252.072922 42.1846973,251.091981 C43.8049434,250.027931 45.0959883,248.646937 46.057832,246.948999 C47.0196756,245.25106 47.74474,242.909989 48.233025,239.925784 L66.7399359,224.953668 L38.1563471,198.799809 Z" id="path-18"></path>
        <filter x="-7.2%" y="-4.5%" width="114.3%" height="109.1%" filterUnits="objectBoundingBox" id="filter-19">
            <feGaussianBlur stdDeviation="1.5" in="SourceAlpha" result="shadowBlurInner1"></feGaussianBlur>
            <feOffset dx="-5" dy="-6" in="shadowBlurInner1" result="shadowOffsetInner1"></feOffset>
            <feComposite in="shadowOffsetInner1" in2="SourceAlpha" operator="arithmetic" k2="-1" k3="1" result="shadowInnerInner1"></feComposite>
            <feColorMatrix values="0 0 0 0 0.392156863   0 0 0 0 0.250980392   0 0 0 0 0.235294118  0 0 0 1 0" type="matrix" in="shadowInnerInner1"></feColorMatrix>
        </filter>
        <path d="M177.416626,218.321323 L228.300142,178.743715 L232.947725,190.684045 C233.278865,197.972245 233.278865,203.118584 232.947725,206.123064 C232.616586,209.127543 231.30244,215.904662 229.005288,226.454421 C229.180061,231.36537 229.439146,235.053576 229.782543,237.519039 C230.297638,241.217234 232.789595,247.918606 231.69968,255.908992 C230.609764,263.899379 226.673657,264.669684 225.342274,270.071537 C224.454685,273.672773 224.454685,278.501554 225.342274,284.557881 C226.497121,288.989638 227.240864,292.179088 227.573502,294.126231 C227.90614,296.073374 227.90614,297.237523 227.573502,297.618679 C227.151428,298.493098 226.780481,299.027446 226.460661,299.221724 C226.140842,299.416002 225.342324,299.416002 224.065107,299.221724 C224.94549,302.621067 225.371212,305.146279 225.342274,306.797361 C225.313335,308.448444 224.887613,309.275158 224.065107,309.277506 C222.148009,309.585324 220.837792,309.585324 220.134456,309.277506 C219.079453,308.815778 213.270786,304.664831 210.902385,303.903976 C207.936406,302.951147 204.767063,302.314643 201.394357,301.994466 C206.877156,292.246646 210.556811,283.740291 212.433321,276.475398 C214.309832,269.210506 214.309832,263.471114 212.433321,259.257222 C208.489035,254.540307 205.231404,251.085069 202.66043,248.891509 C200.559738,247.099194 196.031983,243.045718 188.741254,237.519039 C183.880768,233.834587 180.105893,227.435348 177.416626,218.321323 Z" id="path-20"></path>
        <filter x="-8.1%" y="-3.4%" width="116.1%" height="106.9%" filterUnits="objectBoundingBox" id="filter-21">
            <feGaussianBlur stdDeviation="1.5" in="SourceAlpha" result="shadowBlurInner1"></feGaussianBlur>
            <feOffset dx="-5" dy="-6" in="shadowBlurInner1" result="shadowOffsetInner1"></feOffset>
            <feComposite in="shadowOffsetInner1" in2="SourceAlpha" operator="arithmetic" k2="-1" k3="1" result="shadowInnerInner1"></feComposite>
            <feColorMatrix values="0 0 0 0 0.392156863   0 0 0 0 0.250980392   0 0 0 0 0.235294118  0 0 0 1 0" type="matrix" in="shadowInnerInner1"></feColorMatrix>
        </filter>
        <path d="M47.649659,109.235717 L47.0256677,109.235198 C41.5301072,120.964749 38.0103873,129.563784 36.4665079,135.032302 C34.9226285,140.50082 34.3845822,146.274649 34.8523689,152.353789 C35.2983282,157.280609 35.8363746,160.775368 36.4665079,162.838066 C36.6977885,163.595147 37.0411107,164.485462 37.4964745,165.509009 C32.4988788,176.253846 30.0978991,183.598091 30.2935353,187.541744 C30.5120351,191.946281 32.5995071,196.32253 36.5559512,200.670491 L70.3384676,231.572102 C80.0237276,236.491467 87.2658593,239.570673 92.0648627,240.80972 C96.8638661,242.048766 103.297079,242.500374 111.364502,242.164543 C136.680416,238.761076 154.85589,235.833715 165.890925,233.382461 C169.73883,232.527712 176.526675,234.669645 182.869199,233.382461 C187.097549,232.524339 202.731401,228.29485 229.770756,220.693997 C232.444774,210.948848 233.733265,203.120598 233.636231,197.209244 C233.539196,191.297891 231.778527,185.16051 228.354224,178.797104 C224.834985,171.894211 221.278749,167.475436 217.685513,165.540778 C215.855695,164.555573 210.096784,161.072967 200.453469,157.179566 C198.342864,156.327428 189.126971,153.345986 172.805791,148.235238 C169.820696,147.819703 167.515741,147.229655 165.890925,146.465094 C164.35521,145.74246 162.957662,144.64304 161.69828,143.166834 C158.658657,134.391554 155.084823,127.481294 150.976779,122.436054 C146.748527,117.243183 141.010521,112.866934 133.762762,109.307307 L132.830048,109.306532 L116.087662,68.7298754 C114.076049,61.914583 113.213164,57.3782836 113.499007,55.1209773 C113.78485,52.863671 115.167639,51.2637458 117.647372,50.3212016 C118.946805,48.6624461 119.559041,47.3068142 119.48408,46.2543061 C119.409118,45.201798 118.796882,43.352957 117.647372,40.7077831 C115.361272,39.9955794 113.729799,39.1105071 112.752953,38.052566 C111.776108,36.9946249 110.87555,35.1374636 110.051281,32.4810821 C108.163611,31.139592 106.745461,30.4351396 105.796832,30.3677247 C104.848203,30.3003099 103.56052,30.8124708 101.933784,31.9042076 C98.0618949,30.3170581 95.1657356,29.5327539 93.2453059,29.5512948 C91.3248762,29.5698358 88.3560298,30.4107644 84.3387666,32.0740805 C79.7441918,30.3838301 76.3253556,29.5429015 74.0822579,29.5512948 C71.8391602,29.5596882 68.8960836,30.424422 65.2530281,32.1454965 C62.370745,30.8148444 60.2731037,30.2222538 58.9601045,30.3677247 C57.6471052,30.5131956 56.5176239,31.4633282 55.5716605,33.2181224 C57.0515124,34.0373412 57.9231798,34.7376335 58.1866628,35.3189993 C58.5818873,36.1910479 58.5919111,40.602979 58.1866628,41.8809461 C57.8302547,43.0048938 57.3396609,45.3245928 55.1265242,47.4101351 C53.6510997,48.8004967 51.9916612,49.7708522 50.1482086,50.3212016 C49.4355467,57.2963289 48.9984996,61.5051319 48.8370673,62.9476104 C48.6756351,64.390089 48.5267941,65.416491 48.3905443,66.0268164 C42.7740733,72.8273373 39.3702599,77.5432165 38.1791039,80.1744542 C36.987948,82.8056919 36.4429681,86.8126118 36.5441641,92.1952141 C38.0071708,97.229691 39.2423893,100.547759 40.2498197,102.149418 C41.2572501,103.751078 43.4613219,105.900952 46.862035,108.599041 C47.1321253,108.815244 47.3946666,109.027469 47.649659,109.235717 Z" id="path-22"></path>
        <filter x="-4.7%" y="-4.5%" width="109.3%" height="108.9%" filterUnits="objectBoundingBox" id="filter-23">
            <feGaussianBlur stdDeviation="3.5" in="SourceAlpha" result="shadowBlurInner1"></feGaussianBlur>
            <feOffset dx="0" dy="-12" in="shadowBlurInner1" result="shadowOffsetInner1"></feOffset>
            <feComposite in="shadowOffsetInner1" in2="SourceAlpha" operator="arithmetic" k2="-1" k3="1" result="shadowInnerInner1"></feComposite>
            <feColorMatrix values="0 0 0 0 0.4   0 0 0 0 0.254901961   0 0 0 0 0.239215686  0 0 0 1 0" type="matrix" in="shadowInnerInner1"></feColorMatrix>
        </filter>
        <path d="M91.1149613,173.023506 C84.7184936,183.516013 81.8019957,190.864575 82.3654677,195.069192 C82.6366798,197.092972 83.9215065,205.352202 86.1955812,208.832709 C87.711631,211.153048 91.3210254,213.913771 97.0237642,217.114879 C98.2935257,221.444265 99.5958845,224.780707 100.930841,227.124206 C102.265797,229.467704 105.964634,234.910801 112.027353,243.453497 C113.09249,246.549221 113.665898,248.912418 113.747576,250.543089 C113.807415,251.737736 112.349181,254.021093 112.027353,257.347712 C111.812802,259.565457 112.109097,261.24015 112.916239,262.371789 C115.632053,264.945246 117.142188,266.980716 117.446645,268.478199 C117.751102,269.975682 118.258178,277.861944 118.967874,292.136985 C116.964246,295.179862 115.837076,297.443678 115.586364,298.928433 C115.335651,300.413189 115.851279,301.771016 117.133247,303.001916 L115.724342,306.628182 C120.896926,309.955116 124.778579,311.685277 127.369301,311.818665 C129.960024,311.952053 133.665333,310.221892 138.485228,306.628182 C138.593504,303.742537 138.593504,301.688115 138.485228,300.464916 C138.376953,299.241718 137.985667,296.875747 137.311372,293.367003 C134.127105,287.220752 132.257348,282.368627 131.7021,278.81063 C131.146852,275.252634 131.544147,270.669301 132.893984,265.060634 C134.141641,261.251031 134.81027,258.390464 134.89987,256.478933 C134.970453,254.973128 133.335894,252.470615 132.893984,247.385534 C132.599377,243.995479 133.268005,241.790599 134.89987,240.770892 C137.553466,235.45185 139.304659,230.902955 140.153449,227.124206 C141.00224,223.345456 141.29738,219.06258 141.038868,214.275575 C145.285619,211.162595 148.043569,208.269902 149.312718,205.597498 C150.581867,202.925093 151.356349,198.379665 151.636163,191.961212 L91.1149613,173.023506 Z" id="path-24"></path>
        <filter x="-7.2%" y="-3.6%" width="114.4%" height="107.2%" filterUnits="objectBoundingBox" id="filter-25">
            <feGaussianBlur stdDeviation="1.5" in="SourceAlpha" result="shadowBlurInner1"></feGaussianBlur>
            <feOffset dx="-5" dy="-7" in="shadowBlurInner1" result="shadowOffsetInner1"></feOffset>
            <feComposite in="shadowOffsetInner1" in2="SourceAlpha" operator="arithmetic" k2="-1" k3="1" result="shadowInnerInner1"></feComposite>
            <feColorMatrix values="0 0 0 0 0.392156863   0 0 0 0 0.250980392   0 0 0 0 0.235294118  0 0 0 1 0" type="matrix" in="shadowInnerInner1"></feColorMatrix>
        </filter>
        <path d="M18.261335,0.497138194 C17.1759344,3.20161408 16.5790681,5.22622151 16.4707361,6.57096048 C16.3082382,8.58806894 17.6130837,17.4100481 19.5697029,19.1523009 C21.2652188,20.6620569 23.7716059,26.2819099 33.3827951,29.8601861 C39.7902545,32.2457036 47.0472935,33.4082351 55.1539118,33.3477805 C56.7286694,34.3087117 57.6464452,35.0905892 57.9072393,35.693413 C58.2984304,36.5976487 58.3861793,41.8332854 57.9072393,43.3948948 C57.2928436,45.3981648 54.7854273,47.6681056 50.3849906,50.2047174 C39.1595923,49.8387178 30.5404502,47.5687769 24.5275643,43.3948948 C18.5146785,39.2210127 13.8853535,32.5440839 10.6395894,23.3641084 C10.0937907,17.051472 10.3698631,12.248114 11.4678064,8.95403436 C12.5657497,5.65995474 14.8302592,2.84098935 18.261335,0.497138194 Z" id="path-26"></path>
        <filter x="-8.4%" y="-4.0%" width="116.7%" height="116.1%" filterUnits="objectBoundingBox" id="filter-27">
            <feOffset dx="0" dy="2" in="SourceAlpha" result="shadowOffsetOuter1"></feOffset>
            <feGaussianBlur stdDeviation="1" in="shadowOffsetOuter1" result="shadowBlurOuter1"></feGaussianBlur>
            <feColorMatrix values="0 0 0 0 0   0 0 0 0 0   0 0 0 0 0  0 0 0 0.5 0" type="matrix" in="shadowBlurOuter1"></feColorMatrix>
        </filter>
        <filter x="-9.4%" y="-5.0%" width="118.8%" height="118.1%" filterUnits="objectBoundingBox" id="filter-28">
            <feGaussianBlur stdDeviation="1" in="SourceAlpha" result="shadowBlurInner1"></feGaussianBlur>
            <feOffset dx="0" dy="-3" in="shadowBlurInner1" result="shadowOffsetInner1"></feOffset>
            <feComposite in="shadowOffsetInner1" in2="SourceAlpha" operator="arithmetic" k2="-1" k3="1" result="shadowInnerInner1"></feComposite>
            <feColorMatrix values="0 0 0 0 0.819607843   0 0 0 0 0.77254902   0 0 0 0 0.662745098  0 0 0 1 0" type="matrix" in="shadowInnerInner1"></feColorMatrix>
        </filter>
        <path d="M121.87478,1.41999864 C126.775793,2.92032264 130.187349,4.41520402 132.109448,5.90464276 C134.031547,7.39408151 136.64343,10.5667754 139.945095,15.4227244 C141.74106,23.9505369 141.87014,29.4439024 140.332336,31.9028209 C139.4095,33.3784176 136.912882,39.7907223 132.109448,43.3661204 C128.907159,45.7497192 124.562805,47.5005655 119.076385,48.6186593 C119.046892,44.890591 118.502721,42.2264757 117.443872,40.6263135 C116.803304,39.6582702 115.013555,39.7991828 113.323934,38.2727074 C112.468697,37.5000497 112.822211,36.4686995 111.836333,34.8440485 C111.179081,33.7609479 110.435222,33.1472099 109.604758,33.0028345 C112.513095,33.2621093 114.549143,33.2621093 115.712901,33.0028345 C116.705016,32.7818003 121.21342,31.6200601 125.098205,29.1741077 C128.98299,26.7281553 130.58455,24.3733285 131.265631,22.5362381 C132.00358,20.5457547 131.971808,18.4327101 131.639004,15.9413568 C131.306201,13.4500034 131.121906,11.7357275 129.51698,9.30071372 C127.09576,5.62720817 124.548361,3.00030315 121.87478,1.41999864 Z" id="path-29"></path>
        <filter x="-12.6%" y="-4.2%" width="125.2%" height="116.9%" filterUnits="objectBoundingBox" id="filter-30">
            <feOffset dx="0" dy="2" in="SourceAlpha" result="shadowOffsetOuter1"></feOffset>
            <feGaussianBlur stdDeviation="1" in="shadowOffsetOuter1" result="shadowBlurOuter1"></feGaussianBlur>
            <feColorMatrix values="0 0 0 0 0   0 0 0 0 0   0 0 0 0 0  0 0 0 0.5 0" type="matrix" in="shadowBlurOuter1"></feColorMatrix>
        </filter>
        <filter x="-14.2%" y="-5.3%" width="128.3%" height="119.1%" filterUnits="objectBoundingBox" id="filter-31">
            <feGaussianBlur stdDeviation="1" in="SourceAlpha" result="shadowBlurInner1"></feGaussianBlur>
            <feOffset dx="0" dy="-3" in="shadowBlurInner1" result="shadowOffsetInner1"></feOffset>
            <feComposite in="shadowOffsetInner1" in2="SourceAlpha" operator="arithmetic" k2="-1" k3="1" result="shadowInnerInner1"></feComposite>
            <feColorMatrix values="0 0 0 0 0.819607843   0 0 0 0 0.77254902   0 0 0 0 0.662745098  0 0 0 1 0" type="matrix" in="shadowInnerInner1"></feColorMatrix>
        </filter>
        <filter x="-7.0%" y="-9.3%" width="114.0%" height="125.9%" filterUnits="objectBoundingBox" id="filter-32">
            <feOffset dx="0" dy="1" in="SourceAlpha" result="shadowOffsetOuter1"></feOffset>
            <feGaussianBlur stdDeviation="1" in="shadowOffsetOuter1" result="shadowBlurOuter1"></feGaussianBlur>
            <feColorMatrix values="0 0 0 0 0   0 0 0 0 0   0 0 0 0 0  0 0 0 0.5 0" type="matrix" in="shadowBlurOuter1" result="shadowMatrixOuter1"></feColorMatrix>
            <feMerge>
                <feMergeNode in="shadowMatrixOuter1"></feMergeNode>
                <feMergeNode in="SourceGraphic"></feMergeNode>
            </feMerge>
        </filter>
        <path d="M0.719012981,17.7444361 C4.75360966,21.2463258 7.81642917,23.4835615 9.90747154,24.4561433 C11.4887292,25.1916149 14.3723955,26.4214746 18.6036624,26.7138814 C22.8349294,27.0062881 28.901067,25.0964314 32.3169,22.9947808 C34.594122,21.5936804 37.5299872,18.7598245 41.1244955,14.4932133 C43.1511278,13.6824899 44.6880717,13.1193883 45.7353271,12.8039086 C46.7825826,12.4884289 47.9642825,12.8412329 49.2804267,13.8623207 C49.1677044,11.2126364 49.1677044,9.51301168 49.2804267,8.76344639 C49.393149,8.0138811 49.393149,6.99775852 49.2804267,5.71507863 C48.5062216,6.82922184 47.7894841,7.49523031 47.1302139,7.71310404 C46.4709438,7.93097778 45.2630716,7.93097778 43.5065973,7.71310404 C39.2631584,7.86335329 36.3403312,7.86335329 34.7381157,7.71310404 C33.522,7.59906167 29.6382818,5.96407117 25.8646903,5.71507863 C22.0910987,5.4660861 18.6179314,6.60747116 16.4398297,7.08795499 C10.7841378,8.33558658 5.54386553,11.8877469 0.719012981,17.7444361 Z" id="path-33"></path>
        <filter x="-4.1%" y="-9.5%" width="108.2%" height="119.0%" filterUnits="objectBoundingBox" id="filter-34">
            <feGaussianBlur stdDeviation="0.5" in="SourceAlpha" result="shadowBlurInner1"></feGaussianBlur>
            <feOffset dx="0" dy="3" in="shadowBlurInner1" result="shadowOffsetInner1"></feOffset>
            <feComposite in="shadowOffsetInner1" in2="SourceAlpha" operator="arithmetic" k2="-1" k3="1" result="shadowInnerInner1"></feComposite>
            <feColorMatrix values="0 0 0 0 0.780392157   0 0 0 0 0.494117647   0 0 0 0 0.435294118  0 0 0 1 0" type="matrix" in="shadowInnerInner1"></feColorMatrix>
        </filter>
        <path d="M0.320678403,17.469866 C-0.277755086,16.0234342 5.51011578,8.68206221 9.63907277,5.18389639 C12.3917108,2.85178584 16.2266778,1.24746934 21.1439738,0.370946909 C25.7076233,0.653363849 29.0213002,0.957054964 31.0850043,1.28202025 C33.1487084,1.60698554 36.4611141,2.34668372 41.0222213,3.5011148 C43.2800052,3.07494735 44.9742272,2.67291486 46.1048873,2.29501733 C47.2355474,1.91711979 48.4247732,1.5794541 49.6725646,1.28202025 L49.6725646,7.59574465 C48.1707193,8.69073699 46.9814936,9.34538317 46.1048873,9.5596832 C45.2282811,9.77398322 43.7396399,9.77398322 41.6389639,9.5596832 C36.8115896,8.53010936 33.2936031,7.87546318 31.0850043,7.59574465 C28.8764055,7.31602613 25.7837946,7.13344167 21.8071714,7.04799127 C17.2005755,7.91773947 13.8068158,8.89710865 11.6258921,9.9860988 C8.35450671,11.619584 0.919111892,18.9162978 0.320678403,17.469866 Z" id="path-35"></path>
        <filter x="-4.0%" y="-11.6%" width="108.1%" height="123.1%" filterUnits="objectBoundingBox" id="filter-36">
            <feGaussianBlur stdDeviation="0.5" in="SourceAlpha" result="shadowBlurInner1"></feGaussianBlur>
            <feOffset dx="0" dy="-3" in="shadowBlurInner1" result="shadowOffsetInner1"></feOffset>
            <feComposite in="shadowOffsetInner1" in2="SourceAlpha" operator="arithmetic" k2="-1" k3="1" result="shadowInnerInner1"></feComposite>
            <feColorMatrix values="0 0 0 0 0.329411765   0 0 0 0 0.231372549   0 0 0 0 0.215686275  0 0 0 1 0" type="matrix" in="shadowInnerInner1"></feColorMatrix>
        </filter>
        <filter x="-7.0%" y="-11.5%" width="114.0%" height="123.1%" filterUnits="objectBoundingBox" id="filter-37">
            <feOffset dx="0" dy="0" in="SourceAlpha" result="shadowOffsetOuter1"></feOffset>
            <feGaussianBlur stdDeviation="1" in="shadowOffsetOuter1" result="shadowBlurOuter1"></feGaussianBlur>
            <feColorMatrix values="0 0 0 0 0   0 0 0 0 0   0 0 0 0 0  0 0 0 0.5 0" type="matrix" in="shadowBlurOuter1" result="shadowMatrixOuter1"></feColorMatrix>
            <feMerge>
                <feMergeNode in="shadowMatrixOuter1"></feMergeNode>
                <feMergeNode in="SourceGraphic"></feMergeNode>
            </feMerge>
        </filter>
        <path d="M1.15738562,15.2551033 L2.6085854,20.5646078 C4.89141425,20.1524448 6.58829413,20.0532264 7.69922504,20.2669526 C8.42341865,20.4062764 9.51561595,22.6892742 14.7954047,24.0668017 C18.3152639,24.9851535 22.4209875,25.3891535 27.1125755,25.2788019 C31.1120491,23.4380347 34.3855111,21.2562132 36.9329616,18.7333374 C39.4804121,16.2104616 41.2353029,13.2785122 42.1976343,9.93748931 C39.0153236,7.97549573 36.3847207,6.75636902 34.3058254,6.28010917 C32.2269302,5.80384932 29.4736028,5.61106462 26.0458431,5.70175506 C20.2281013,7.08872365 16.1539256,8.50063507 13.8233158,9.93748931 C11.4927061,11.3743435 8.69095911,13.0112319 5.41807489,14.8481543 C4.10583545,15.2213435 3.16933895,15.4347175 2.6085854,15.4882765 C2.04783185,15.5418355 1.56409859,15.4641111 1.15738562,15.2551033 Z" id="path-38"></path>
        <filter x="-4.9%" y="-10.2%" width="109.7%" height="120.4%" filterUnits="objectBoundingBox" id="filter-39">
            <feGaussianBlur stdDeviation="0.5" in="SourceAlpha" result="shadowBlurInner1"></feGaussianBlur>
            <feOffset dx="0" dy="3" in="shadowBlurInner1" result="shadowOffsetInner1"></feOffset>
            <feComposite in="shadowOffsetInner1" in2="SourceAlpha" operator="arithmetic" k2="-1" k3="1" result="shadowInnerInner1"></feComposite>
            <feColorMatrix values="0 0 0 0 0.780392157   0 0 0 0 0.494117647   0 0 0 0 0.435294118  0 0 0 1 0" type="matrix" in="shadowInnerInner1"></feColorMatrix>
        </filter>
        <path d="M4.05285159,9.50213442 C12.8462989,3.49481089 19.3174735,0.516950791 23.4663754,0.568554141 C29.6897283,0.645959166 42.286025,8.6397844 42.1605396,9.99545914 C42.0990643,10.6596036 38.9084523,8.60670751 34.9021139,7.69456532 C30.8957756,6.78242313 25.6839267,6.92720904 22.8428726,7.304534 C19.1298074,7.79767215 13.6708788,10.3032394 6.46608658,14.8212358 C5.0943505,15.4821818 4.06205494,15.8567111 3.3691999,15.9448235 C2.67634486,16.032936 1.96033643,15.8807437 1.22117462,15.4882468 C0.297204162,15.0211241 0.0301454994,14.3754916 0.419998635,13.5513493 C0.809851771,12.727207 2.02080276,11.3774687 4.05285159,9.50213442 Z" id="path-40"></path>
        <filter x="-4.8%" y="-13.0%" width="109.5%" height="126.0%" filterUnits="objectBoundingBox" id="filter-41">
            <feGaussianBlur stdDeviation="0.5" in="SourceAlpha" result="shadowBlurInner1"></feGaussianBlur>
            <feOffset dx="0" dy="-3" in="shadowBlurInner1" result="shadowOffsetInner1"></feOffset>
            <feComposite in="shadowOffsetInner1" in2="SourceAlpha" operator="arithmetic" k2="-1" k3="1" result="shadowInnerInner1"></feComposite>
            <feColorMatrix values="0 0 0 0 0.329411765   0 0 0 0 0.231372549   0 0 0 0 0.215686275  0 0 0 1 0" type="matrix" in="shadowInnerInner1"></feColorMatrix>
        </filter>
        <path d="M1.17679967,0.00138671742 C2.94984328,0.638533006 4.13236656,1.15647196 4.7243695,1.55520358 C5.61237391,2.15330102 8.42289028,4.71921138 10.2778261,5.40473113 C11.6714945,5.9197825 13.1586561,6.92099358 14.8404731,7.37040307 C15.9616844,7.6700094 17.4752864,7.84774035 19.3812792,7.90359592 C18.9238442,11.4156412 18.4195413,13.6611989 17.8683705,14.6402691 C17.3171998,15.6193394 16.483436,16.2708654 15.367079,16.5948473 C11.2791867,17.037988 8.22609718,16.9001251 6.20781046,16.1812589 C4.18952374,15.4623926 2.33663815,13.2539295 0.649153689,9.55586972 C0.226832189,6.74478881 0.0593860605,4.63397378 0.146815304,3.22342464 C0.234244548,1.81287549 0.577572668,0.738862852 1.17679967,0.00138671742 Z" id="path-42"></path>
        <filter x="-7.8%" y="-8.9%" width="115.6%" height="117.8%" filterUnits="objectBoundingBox" id="filter-43">
            <feGaussianBlur stdDeviation="1" in="SourceAlpha" result="shadowBlurInner1"></feGaussianBlur>
            <feOffset dx="0" dy="-1" in="shadowBlurInner1" result="shadowOffsetInner1"></feOffset>
            <feComposite in="shadowOffsetInner1" in2="SourceAlpha" operator="arithmetic" k2="-1" k3="1" result="shadowInnerInner1"></feComposite>
            <feColorMatrix values="0 0 0 0 0.768627451   0 0 0 0 0.756862745   0 0 0 0 0.760784314  0 0 0 1 0" type="matrix" in="shadowInnerInner1"></feColorMatrix>
        </filter>
        <circle id="path-44" cx="9.64998977" cy="9.22999113" r="4.96999522"></circle>
        <filter x="-15.1%" y="-15.1%" width="130.2%" height="130.2%" filterUnits="objectBoundingBox" id="filter-45">
            <feGaussianBlur stdDeviation="1.5" in="SourceAlpha" result="shadowBlurInner1"></feGaussianBlur>
            <feOffset dx="0" dy="0" in="shadowBlurInner1" result="shadowOffsetInner1"></feOffset>
            <feComposite in="shadowOffsetInner1" in2="SourceAlpha" operator="arithmetic" k2="-1" k3="1" result="shadowInnerInner1"></feComposite>
            <feColorMatrix values="0 0 0 0 0.439215686   0 0 0 0 0.239215686   0 0 0 0 0.270588235  0 0 0 1 0" type="matrix" in="shadowInnerInner1"></feColorMatrix>
        </filter>
        <path d="M0.902753039,6.94069061 C2.65131885,7.30293303 4.06808181,7.30293303 5.15304192,6.94069061 C5.99098104,6.66092264 6.25101409,3.69706489 11.3835633,1.41912853 C14.8052627,-0.0994956996 17.4133315,-0.296178453 19.2077696,0.829080273 L19.0403235,5.95889468 C17.9631976,8.31541667 17.1701108,9.82774757 16.6610631,10.4958874 C16.1520154,11.1640272 14.9454557,12.2762901 13.041384,13.8326762 C10.0482238,14.120918 7.93001295,14.120918 6.68675139,13.8326762 C5.44348982,13.5444343 4.31735972,12.7922557 3.30836108,11.5761403 C2.55579021,11.0000752 2.01485486,10.3947731 1.68555502,9.7602338 C1.35625518,9.1256945 1.09532119,8.18584677 0.902753039,6.94069061 Z" id="path-46"></path>
        <filter x="-8.2%" y="-10.8%" width="116.4%" height="121.5%" filterUnits="objectBoundingBox" id="filter-47">
            <feGaussianBlur stdDeviation="1" in="SourceAlpha" result="shadowBlurInner1"></feGaussianBlur>
            <feOffset dx="0" dy="-1" in="shadowBlurInner1" result="shadowOffsetInner1"></feOffset>
            <feComposite in="shadowOffsetInner1" in2="SourceAlpha" operator="arithmetic" k2="-1" k3="1" result="shadowInnerInner1"></feComposite>
            <feColorMatrix values="0 0 0 0 0.768627451   0 0 0 0 0.756862745   0 0 0 0 0.760784314  0 0 0 1 0" type="matrix" in="shadowInnerInner1"></feColorMatrix>
        </filter>
        <circle id="path-48" cx="9.93999045" cy="6.09999318" r="4.25999591"></circle>
        <filter x="-17.6%" y="-17.6%" width="135.2%" height="135.2%" filterUnits="objectBoundingBox" id="filter-49">
            <feGaussianBlur stdDeviation="1.5" in="SourceAlpha" result="shadowBlurInner1"></feGaussianBlur>
            <feOffset dx="0" dy="0" in="shadowBlurInner1" result="shadowOffsetInner1"></feOffset>
            <feComposite in="shadowOffsetInner1" in2="SourceAlpha" operator="arithmetic" k2="-1" k3="1" result="shadowInnerInner1"></feComposite>
            <feColorMatrix values="0 0 0 0 0.439215686   0 0 0 0 0.239215686   0 0 0 0 0.270588235  0 0 0 1 0" type="matrix" in="shadowInnerInner1"></feColorMatrix>
        </filter>
        <path d="M19.600904,46.5337297 C20.6031278,50.2311524 21.5423211,52.5859141 22.4184839,53.5980149 C23.2946468,54.6101157 24.5253222,55.2489302 26.1105102,55.5144584 C30.3987048,56.4955754 33.7109467,56.924071 36.0472358,56.7999454 C38.3835249,56.6758198 42.0081466,55.7491459 46.9211011,54.0199237 C50.9601206,55.0214195 53.6261009,55.5195977 54.9190418,55.5144584 C56.2119827,55.509319 58.0291254,55.3697228 60.37047,55.0956697 C62.1297894,53.0931828 63.4266613,51.4441447 64.2610858,50.1485553 C65.0955104,48.852966 65.4367607,46.9129483 65.2848367,44.3285023 C61.2694111,44.1822269 58.1847499,43.7396329 56.0308534,43.0007204 C53.8769568,42.2618079 51.4726219,40.8213552 48.8178488,38.6793622 C45.5113221,41.9635425 42.8112773,44.0181954 40.7177142,44.8433212 C38.6241512,45.6684469 35.0170449,46.0996005 29.8963954,46.1367818 L19.600904,46.5337297 Z" id="path-50"></path>
        <filter x="-5.5%" y="-8.3%" width="110.9%" height="133.1%" filterUnits="objectBoundingBox" id="filter-51">
            <feOffset dx="0" dy="2" in="SourceAlpha" result="shadowOffsetOuter1"></feOffset>
            <feGaussianBlur stdDeviation="0.5" in="shadowOffsetOuter1" result="shadowBlurOuter1"></feGaussianBlur>
            <feColorMatrix values="0 0 0 0 0   0 0 0 0 0   0 0 0 0 0  0 0 0 0.5 0" type="matrix" in="shadowBlurOuter1"></feColorMatrix>
        </filter>
        <filter x="-6.6%" y="-11.0%" width="113.1%" height="138.6%" filterUnits="objectBoundingBox" id="filter-52">
            <feGaussianBlur stdDeviation="0.5" in="SourceAlpha" result="shadowBlurInner1"></feGaussianBlur>
            <feOffset dx="0" dy="-3" in="shadowBlurInner1" result="shadowOffsetInner1"></feOffset>
            <feComposite in="shadowOffsetInner1" in2="SourceAlpha" operator="arithmetic" k2="-1" k3="1" result="shadowInnerInner1"></feComposite>
            <feColorMatrix values="0 0 0 0 0.77254902   0 0 0 0 0.48627451   0 0 0 0 0.42745098  0 0 0 1 0" type="matrix" in="shadowInnerInner1"></feColorMatrix>
        </filter>
        <path d="M4.65937052,19.5478621 L4.71102575,12.7487866 C5.6398349,9.7206003 6.60568358,7.65265795 7.60857179,6.54495953 C8.61146,5.43726111 10.5061782,4.34568339 13.2927265,3.27022635 C18.1693158,3.3363703 21.74462,3.75469672 24.018639,4.52520561 C26.292658,5.29571451 28.9528443,6.99016763 31.9991978,9.60856498 C37.4812581,8.14765012 41.5968043,7.39743599 44.3458363,7.35792262 C47.0948683,7.31840924 50.5527637,7.95976605 54.7195226,9.28199303 C56.8714139,6.37751639 58.6645551,4.37359417 60.0989462,3.27022635 C61.5333372,2.16685853 63.610871,1.34095275 66.3315476,0.792509004 C68.4535779,0.426471939 70.0444894,0.261221447 71.1042823,0.296757527 C72.1640751,0.332293608 73.2992189,0.588951889 74.5097136,1.06673237 C77.4620862,3.39462605 79.2449425,5.22070177 79.8582826,6.54495953 C80.4716227,7.86921729 80.4716227,11.6492934 79.8582826,17.8851879 C81.9988548,20.2786186 83.3060671,22.1807326 83.7799195,23.5915301 C84.2537719,25.0023275 84.2537719,29.8766392 83.7799195,38.2144652 L83.3448369,38.7365643 C81.0963406,41.8373444 79.3057417,43.724089 77.9730403,44.3967982 C76.6403389,45.0695073 73.8652862,45.4873715 69.6478823,45.6503907 C63.6245321,45.6311077 59.0416621,45.2132435 55.8992725,44.3967982 C52.7568828,43.5803528 49.938264,42.0751866 47.4434163,39.8812996 C45.2410679,42.495814 43.459136,44.184258 42.0976207,44.9466316 C40.7361054,45.7090052 38.2355072,46.4185423 34.5958261,47.0752428 L24.6311642,47.2586353 L17.5672829,47.388641 C12.2630181,46.3715327 8.16711708,44.553315 5.27957989,41.933988 C2.39204269,39.314661 0.715270215,35.8964026 0.249262456,31.6792127 C0.506461181,28.3218726 0.905373558,25.899624 1.44599959,24.4124668 C1.98662562,22.9253096 3.05774926,21.3037747 4.65937052,19.5478621 Z" id="path-53"></path>
        <filter x="-6.6%" y="-7.4%" width="113.1%" height="123.4%" filterUnits="objectBoundingBox" id="filter-54">
            <feOffset dx="0" dy="2" in="SourceAlpha" result="shadowOffsetOuter1"></feOffset>
            <feGaussianBlur stdDeviation="1.5" in="shadowOffsetOuter1" result="shadowBlurOuter1"></feGaussianBlur>
            <feColorMatrix values="0 0 0 0 0   0 0 0 0 0   0 0 0 0 0  0 0 0 0.5 0" type="matrix" in="shadowBlurOuter1"></feColorMatrix>
        </filter>
        <filter x="-6.0%" y="-6.4%" width="111.9%" height="121.2%" filterUnits="objectBoundingBox" id="filter-55">
            <feGaussianBlur stdDeviation="0.5" in="SourceAlpha" result="shadowBlurInner1"></feGaussianBlur>
            <feOffset dx="0" dy="-3" in="shadowBlurInner1" result="shadowOffsetInner1"></feOffset>
            <feComposite in="shadowOffsetInner1" in2="SourceAlpha" operator="arithmetic" k2="-1" k3="1" result="shadowInnerInner1"></feComposite>
            <feColorMatrix values="0 0 0 0 0.77254902   0 0 0 0 0.48627451   0 0 0 0 0.42745098  0 0 0 1 0" type="matrix" in="shadowInnerInner1"></feColorMatrix>
        </filter>
        <path d="M21.1734201,28.3963322 C25.1014885,28.3963322 26.061963,24.2092744 26.061963,18.4062214 C26.061963,12.6031684 23.3706369,8.05169465 19.4425685,8.05169465 C15.5145001,8.05169465 13.0632545,12.4100216 13.0632545,18.2130746 C13.0632545,24.0161276 17.2453517,28.3963322 21.1734201,28.3963322 Z" id="path-56"></path>
        <filter x="-26.9%" y="-17.2%" width="153.9%" height="134.4%" filterUnits="objectBoundingBox" id="filter-57">
            <feGaussianBlur stdDeviation="2" in="SourceAlpha" result="shadowBlurInner1"></feGaussianBlur>
            <feOffset dx="-1" dy="3" in="shadowBlurInner1" result="shadowOffsetInner1"></feOffset>
            <feComposite in="shadowOffsetInner1" in2="SourceAlpha" operator="arithmetic" k2="-1" k3="1" result="shadowInnerInner1"></feComposite>
            <feColorMatrix values="0 0 0 0 0.403921569   0 0 0 0 0.247058824   0 0 0 0 0.235294118  0 0 0 1 0" type="matrix" in="shadowInnerInner1"></feColorMatrix>
        </filter>
        <path d="M65.4960996,25.8369183 C68.869867,25.8369183 71.5903656,22.6545527 73.0573542,17.6977484 C73.80862,15.1592982 72.9207621,9.39239115 71.4670631,7.57535305 C70.013364,5.75831494 68.2655075,6.0544613 66.8665086,6.0544613 C63.4927413,6.0544613 60.7577624,10.5047466 60.7577624,15.9944517 C60.7577624,21.4841569 62.1223323,25.8369183 65.4960996,25.8369183 Z" id="path-58"></path>
        <filter x="-27.8%" y="-17.7%" width="155.7%" height="135.4%" filterUnits="objectBoundingBox" id="filter-59">
            <feGaussianBlur stdDeviation="2" in="SourceAlpha" result="shadowBlurInner1"></feGaussianBlur>
            <feOffset dx="-1" dy="3" in="shadowBlurInner1" result="shadowOffsetInner1"></feOffset>
            <feComposite in="shadowOffsetInner1" in2="SourceAlpha" operator="arithmetic" k2="-1" k3="1" result="shadowInnerInner1"></feComposite>
            <feColorMatrix values="0 0 0 0 0.403921569   0 0 0 0 0.247058824   0 0 0 0 0.235294118  0 0 0 1 0" type="matrix" in="shadowInnerInner1"></feColorMatrix>
        </filter>
    </defs>
    <g id="Images" stroke="none" stroke-width="1" fill="none" fill-rule="evenodd">
        <g id="justBull">
            <g id="Bull" filter="url(#filter-1)" transform="translate(79.000000, 42.000000)">
                <path d="M159.753977,232.53828 C163.562603,231.387752 166.516228,230.76266 168.614854,230.663005 C170.713479,230.563349 176.703536,230.763742 186.585022,231.264183 C187.350686,233.097458 187.980916,234.311612 188.475713,234.906646 C188.97051,235.501681 190.045211,236.337847 191.699816,237.415144 C186.588351,241.360887 183.067445,243.717934 181.137097,244.486286 C179.206748,245.254639 175.825125,245.645062 170.992227,245.657556 C167.671932,245.692959 165.311914,245.302536 163.912174,244.486286 C162.512434,243.670037 161.076803,241.847052 159.605281,239.017331 L159.753977,232.53828 Z" id="Path-30" fill="#371D1D"></path>
                <path d="M169.116429,243.282458 C169.9305,246.2813 170.342124,248.531385 170.351301,250.032713 C170.360478,251.53404 169.979131,254.236927 169.207259,258.141374 C162.621167,264.275453 157.969423,268.944643 155.252029,272.148945 C152.534634,275.353247 146.88769,282.828081 138.311195,294.573447 L134.33617,293.315877 L128.819808,280.201426 L132.553544,275.980716 C138.782868,266.856719 142.0368,259.998666 142.315342,255.406555 C142.593883,250.814445 140.122059,244.778445 134.89987,237.298557 C138.506892,236.809177 140.978716,236.45505 142.315342,236.236177 C143.651967,236.017304 150.175086,234.898504 161.884698,232.879776 C161.982739,236.347131 162.273257,238.428195 162.75625,239.12297 C163.239243,239.817744 165.359303,241.20424 169.116429,243.282458 Z" id="Leg4" fill="#4B2E2E"></path>
                <g id="Tail" transform="translate(227.199782, 73.839929)">
                    <g id="Tailpt2">
                        <use fill="#483A31" fill-rule="evenodd" xlink:href="#path-2"></use>
                        <use fill="black" fill-opacity="1" filter="url(#filter-3)" xlink:href="#path-2"></use>
                    </g>
                    <g>
                        <use fill="#885A55" fill-rule="evenodd" xlink:href="#path-4"></use>
                        <use fill="black" fill-opacity="1" filter="url(#filter-5)" xlink:href="#path-4"></use>
                    </g>
                </g>
                <g id="Hoof1" transform="translate(0.000000, 288.259723)">
                    <g id="Path-35">
                        <use fill="#363647" fill-rule="evenodd" xlink:href="#path-6"></use>
                        <use fill="black" fill-opacity="1" filter="url(#filter-7)" xlink:href="#path-6"></use>
                    </g>
                    <g id="Path-34">
                        <use fill="#363647" fill-rule="evenodd" xlink:href="#path-8"></use>
                        <use fill="black" fill-opacity="1" filter="url(#filter-9)" xlink:href="#path-8"></use>
                    </g>
                </g>
                <g id="Hoof2" transform="translate(112.179892, 305.299707)">
                    <g id="Path-40">
                        <use fill="#363647" fill-rule="evenodd" xlink:href="#path-10"></use>
                        <use fill="black" fill-opacity="1" filter="url(#filter-11)" xlink:href="#path-10"></use>
                    </g>
                    <g id="Path-39">
                        <use fill="#363647" fill-rule="evenodd" xlink:href="#path-12"></use>
                        <use fill="black" fill-opacity="1" filter="url(#filter-13)" xlink:href="#path-12"></use>
                    </g>
                </g>
                <g id="Hoof3" transform="translate(195.959812, 302.039711)">
                    <g id="Path-41">
                        <use fill="#363647" fill-rule="evenodd" xlink:href="#path-14"></use>
                        <use fill="black" fill-opacity="1" filter="url(#filter-15)" xlink:href="#path-14"></use>
                    </g>
                    <g id="Path-42">
                        <use fill="#363647" fill-rule="evenodd" xlink:href="#path-16"></use>
                        <use fill="black" fill-opacity="1" filter="url(#filter-17)" xlink:href="#path-16"></use>
                    </g>
                </g>
                <g id="Leg3">
                    <use fill="#885A55" fill-rule="evenodd" xlink:href="#path-18"></use>
                    <use fill="black" fill-opacity="1" filter="url(#filter-19)" xlink:href="#path-18"></use>
                </g>
                <g id="Leg1">
                    <use fill="#885A55" fill-rule="evenodd" xlink:href="#path-20"></use>
                    <use fill="black" fill-opacity="1" filter="url(#filter-21)" xlink:href="#path-20"></use>
                </g>
                <g id="Path-32">
                    <use fill="#885A55" fill-rule="evenodd" xlink:href="#path-22"></use>
                    <use fill="black" fill-opacity="1" filter="url(#filter-23)" xlink:href="#path-22"></use>
                </g>
                <g id="Leg2">
                    <use fill="#885A55" fill-rule="evenodd" xlink:href="#path-24"></use>
                    <use fill="black" fill-opacity="1" filter="url(#filter-25)" xlink:href="#path-24"></use>
                </g>
                <g id="Horn-2">
                    <use fill="black" fill-opacity="1" filter="url(#filter-27)" xlink:href="#path-26"></use>
                    <use fill="#FDF9EA" fill-rule="evenodd" xlink:href="#path-26"></use>
                    <use fill="black" fill-opacity="1" filter="url(#filter-28)" xlink:href="#path-26"></use>
                </g>
                <g id="Horn-1">
                    <use fill="black" fill-opacity="1" filter="url(#filter-30)" xlink:href="#path-29"></use>
                    <use fill="#FDF9EA" fill-rule="evenodd" xlink:href="#path-29"></use>
                    <use fill="black" fill-opacity="1" filter="url(#filter-31)" xlink:href="#path-29"></use>
                </g>
                <g id="Ear-1" filter="url(#filter-32)" transform="translate(1.419999, 49.699952)">
                    <g id="Path-26">
                        <use fill="#E0A796" fill-rule="evenodd" xlink:href="#path-33"></use>
                        <use fill="black" fill-opacity="1" filter="url(#filter-34)" xlink:href="#path-33"></use>
                    </g>
                    <g id="TopEar1">
                        <use fill="#855D5A" fill-rule="evenodd" xlink:href="#path-35"></use>
                        <use fill="black" fill-opacity="1" filter="url(#filter-36)" xlink:href="#path-35"></use>
                    </g>
                </g>
                <g id="Ear-2" filter="url(#filter-37)" transform="translate(111.759894, 45.439956)">
                    <g id="Path-28">
                        <use fill="#E0A796" fill-rule="evenodd" xlink:href="#path-38"></use>
                        <use fill="black" fill-opacity="1" filter="url(#filter-39)" xlink:href="#path-38"></use>
                    </g>
                    <g id="Path-27">
                        <use fill="#855D5A" fill-rule="evenodd" xlink:href="#path-40"></use>
                        <use fill="black" fill-opacity="1" filter="url(#filter-41)" xlink:href="#path-40"></use>
                    </g>
                </g>
                <g id="Eye-1" transform="translate(59.219944, 48.279954)">
                    <g id="Path-29">
                        <use fill="#FFFFFF" fill-rule="evenodd" xlink:href="#path-42"></use>
                        <use fill="black" fill-opacity="1" filter="url(#filter-43)" xlink:href="#path-42"></use>
                    </g>
                    <g id="Oval-8">
                        <use fill="#000000" fill-rule="evenodd" xlink:href="#path-44"></use>
                        <use fill="black" fill-opacity="1" filter="url(#filter-45)" xlink:href="#path-44"></use>
                    </g>
                    <path d="M10.3905677,9.95335377 C11.1748113,9.95335377 10.5091125,8.87132315 10.5091125,7.69495776 C10.5091125,6.51859238 9.72535948,5.66449799 9.02079516,6.19156096 C8.68700068,6.44126238 7.98152232,7.84169504 8.27723327,8.67497713 C8.57294422,9.50825923 9.97786745,9.95335377 10.3905677,9.95335377 Z" id="Oval" fill="#FFFFFF" transform="translate(9.489603, 7.992880) rotate(-24.000000) translate(-9.489603, -7.992880) "></path>
                </g>
                <g id="Eye-2" transform="translate(97.979906, 49.279954)">
                    <g id="Path-23">
                        <use fill="#FFFFFF" fill-rule="evenodd" xlink:href="#path-46"></use>
                        <use fill="black" fill-opacity="1" filter="url(#filter-47)" xlink:href="#path-46"></use>
                    </g>
                    <g id="Oval-7">
                        <use fill="#000000" fill-rule="evenodd" xlink:href="#path-48"></use>
                        <use fill="black" fill-opacity="1" filter="url(#filter-49)" xlink:href="#path-48"></use>
                    </g>
                    <path d="M8.51999181,7.51999181 C8.92628766,7.51999181 9.04565686,7.12487253 9.27211267,6.67548091 C9.49856849,6.22608928 9.8148392,5.79810271 9.8148392,5.42015496 C9.8148392,4.63591137 9.3042354,4.35931614 8.51999181,4.35931614 C7.73574822,4.35931614 7.42101826,5.31552447 7.42101826,6.09976806 C7.42101826,6.88401165 7.73574822,7.51999181 8.51999181,7.51999181 Z" id="Oval-2" fill="#FFFFFF"></path>
                </g>
                <g id="Nose" transform="translate(51.119951, 68.159934)">
                    <g id="Path-25">
                        <use fill="black" fill-opacity="1" filter="url(#filter-51)" xlink:href="#path-50"></use>
                        <use fill="#D29B8A" fill-rule="evenodd" xlink:href="#path-50"></use>
                        <use fill="black" fill-opacity="1" filter="url(#filter-52)" xlink:href="#path-50"></use>
                    </g>
                    <g id="Path-24">
                        <use fill="black" fill-opacity="1" filter="url(#filter-54)" xlink:href="#path-53"></use>
                        <use fill="#D29B8A" fill-rule="evenodd" xlink:href="#path-53"></use>
                        <use fill="black" fill-opacity="1" filter="url(#filter-55)" xlink:href="#path-53"></use>
                    </g>
                    <g id="Nostril-left" transform="translate(19.562609, 18.224013) rotate(-43.000000) translate(-19.562609, -18.224013) ">
                        <use fill="#2A1815" fill-rule="evenodd" xlink:href="#path-56"></use>
                        <use fill="black" fill-opacity="1" filter="url(#filter-57)" xlink:href="#path-56"></use>
                    </g>
                    <g id="Oval-9" transform="translate(67.044001, 15.936741) rotate(28.000000) translate(-67.044001, -15.936741) ">
                        <use fill="#2A1815" fill-rule="evenodd" xlink:href="#path-58"></use>
                        <use fill="black" fill-opacity="1" filter="url(#filter-59)" xlink:href="#path-58"></use>
                    </g>
                </g>
                <path d="M61.2552951,47.2726767 C65.6306492,51.1050513 68.9678424,53.5129127 71.2668749,54.4962611 C73.5659073,55.4796095 76.0744791,55.9410397 78.7925903,55.8805518 C80.970055,55.8908309 82.3842756,55.607825 83.0352522,55.031534 C83.6862289,54.4552431 83.8372655,53.3525716 83.4883621,51.7235196" id="Path-2" stroke="#422F2C" stroke-width="2"></path>
                <path d="M98.2237948,55.8999658 C100.518978,56.4841604 102.052283,56.5877597 102.82371,56.2107639 C103.283736,55.9859495 103.971191,53.5194718 105.770311,52.0336243 C106.969724,51.0430593 108.641759,50.2853916 110.786415,49.7606211 C114.129991,50.0936308 116.215499,50.2318981 117.042937,50.175423 C117.870375,50.1189479 118.50682,49.5813637 118.952273,48.5626706" id="Path-31" stroke="#422F2C" stroke-width="2"></path>
                <path d="M60.84292,176.292692 C65.4143932,181.947911 68.0165684,186.190342 68.6494457,189.019984 C69.2823231,191.849627 68.5778706,196.092057 66.5360884,201.747277" id="Path-33" stroke="#422F2C" stroke-width="2" opacity="0.230000019"></path>
            </g>
        </g>
    </g>
</svg>