<?xml version="1.0" encoding="UTF-8"?>
<svg width="400px" height="400px" viewBox="0 0 400 400" version="1.1" xmlns="http://www.w3.org/2000/svg" xmlns:xlink="http://www.w3.org/1999/xlink">
    <!-- Generator: Sketch 45.2 (43514) - http://www.bohemiancoding.com/sketch -->
    <title>justStreet</title>
    <desc>Created with Sketch.</desc>
    <defs>
        <filter x="-5.1%" y="-2.1%" width="110.2%" height="106.9%" filterUnits="objectBoundingBox" id="filter-1">
            <feOffset dx="0" dy="2" in="SourceAlpha" result="shadowOffsetOuter1"></feOffset>
            <feGaussianBlur stdDeviation="1.5" in="shadowOffsetOuter1" result="shadowBlurOuter1"></feGaussianBlur>
            <feColorMatrix values="0 0 0 0 0   0 0 0 0 0   0 0 0 0 0  0 0 0 0.5 0" type="matrix" in="shadowBlurOuter1" result="shadowMatrixOuter1"></feColorMatrix>
            <feMerge>
                <feMergeNode in="shadowMatrixOuter1"></feMergeNode>
                <feMergeNode in="SourceGraphic"></feMergeNode>
            </feMerge>
        </filter>
        <radialGradient cx="82.1819679%" cy="16.3385445%" fx="82.1819679%" fy="16.3385445%" r="126.301469%" gradientTransform="translate(0.821820,0.163385),scale(1.000000,0.693744),rotate(120.546762),scale(1.000000,0.188371),translate(-0.821820,-0.163385)" id="radialGradient-2">
            <stop stop-color="#D51A27" offset="0%"></stop>
            <stop stop-color="#C41E22" offset="19.9991691%"></stop>
            <stop stop-color="#AA0F15" offset="45.3946002%"></stop>
            <stop stop-color="#CA3E47" offset="62.6279772%"></stop>
            <stop stop-color="#D72E36" offset="74.3428276%"></stop>
            <stop stop-color="#DE262D" offset="80.8062343%"></stop>
            <stop stop-color="#973637" offset="100%"></stop>
        </radialGradient>
        <radialGradient cx="95.0210278%" cy="3.05694708%" fx="95.0210278%" fy="3.05694708%" r="143.374128%" gradientTransform="translate(0.950210,0.030569),scale(1.000000,0.693744),rotate(121.549334),scale(1.000000,0.184083),translate(-0.950210,-0.030569)" id="radialGradient-3">
            <stop stop-color="#FFFFFF" offset="0%"></stop>
            <stop stop-color="#F0EEEE" offset="6.39349084%"></stop>
            <stop stop-color="#FFFFFF" offset="36.6568783%"></stop>
            <stop stop-color="#FFFFFF" offset="64.3915864%"></stop>
            <stop stop-color="#E8E8E8" offset="100%"></stop>
        </radialGradient>
        <radialGradient cx="82.1819679%" cy="16.3385445%" fx="82.1819679%" fy="16.3385445%" r="126.301469%" gradientTransform="translate(0.821820,0.163385),scale(1.000000,0.697473),rotate(120.681348),scale(1.000000,0.188371),translate(-0.821820,-0.163385)" id="radialGradient-4">
            <stop stop-color="#D51A27" offset="0%"></stop>
            <stop stop-color="#C41E22" offset="19.9991691%"></stop>
            <stop stop-color="#AA0F15" offset="45.3946002%"></stop>
            <stop stop-color="#CA3E47" offset="62.6279772%"></stop>
            <stop stop-color="#DE262D" offset="80.8062343%"></stop>
            <stop stop-color="#973637" offset="100%"></stop>
        </radialGradient>
        <radialGradient cx="95.0210278%" cy="3.05694708%" fx="95.0210278%" fy="3.05694708%" r="143.374128%" gradientTransform="translate(0.950210,0.030569),scale(1.000000,0.668844),rotate(120.623317),scale(1.000000,0.184083),translate(-0.950210,-0.030569)" id="radialGradient-5">
            <stop stop-color="#FFFFFF" offset="0%"></stop>
            <stop stop-color="#F0EEEE" offset="6.39349084%"></stop>
            <stop stop-color="#FFFFFF" offset="36.6568783%"></stop>
            <stop stop-color="#FFFFFF" offset="64.3915864%"></stop>
            <stop stop-color="#E8E8E8" offset="100%"></stop>
        </radialGradient>
        <radialGradient cx="82.1819679%" cy="16.3385445%" fx="82.1819679%" fy="16.3385445%" r="126.301469%" gradientTransform="translate(0.821820,0.163385),scale(1.000000,0.645357),rotate(118.766062),scale(1.000000,0.188371),translate(-0.821820,-0.163385)" id="radialGradient-6">
            <stop stop-color="#D51A27" offset="0%"></stop>
            <stop stop-color="#C41E22" offset="19.9991691%"></stop>
            <stop stop-color="#AA0F15" offset="45.3946002%"></stop>
            <stop stop-color="#CA3E47" offset="62.6279772%"></stop>
            <stop stop-color="#DE262D" offset="80.8062343%"></stop>
            <stop stop-color="#973637" offset="100%"></stop>
        </radialGradient>
        <radialGradient cx="95.0210278%" cy="3.05694708%" fx="95.0210278%" fy="3.05694708%" r="143.374128%" gradientTransform="translate(0.950210,0.030569),scale(1.000000,0.635855),rotate(119.368725),scale(1.000000,0.184083),translate(-0.950210,-0.030569)" id="radialGradient-7">
            <stop stop-color="#FFFFFF" offset="0%"></stop>
            <stop stop-color="#F0EEEE" offset="6.39349084%"></stop>
            <stop stop-color="#FFFFFF" offset="36.6568783%"></stop>
            <stop stop-color="#FFFFFF" offset="64.3915864%"></stop>
            <stop stop-color="#E8E8E8" offset="100%"></stop>
        </radialGradient>
        <radialGradient cx="82.1819679%" cy="16.3385445%" fx="82.1819679%" fy="16.3385445%" r="126.301469%" gradientTransform="translate(0.821820,0.163385),scale(1.000000,0.696703),rotate(120.653610),scale(1.000000,0.188371),translate(-0.821820,-0.163385)" id="radialGradient-8">
            <stop stop-color="#D51A27" offset="0%"></stop>
            <stop stop-color="#C41E22" offset="19.9991691%"></stop>
            <stop stop-color="#AA0F15" offset="45.3946002%"></stop>
            <stop stop-color="#CA3E47" offset="62.6279772%"></stop>
            <stop stop-color="#DE262D" offset="80.8062343%"></stop>
            <stop stop-color="#973637" offset="100%"></stop>
        </radialGradient>
        <radialGradient cx="95.0210278%" cy="3.05694708%" fx="95.0210278%" fy="3.05694708%" r="143.374128%" gradientTransform="translate(0.950210,0.030569),scale(1.000000,0.628425),rotate(119.081765),scale(1.000000,0.184083),translate(-0.950210,-0.030569)" id="radialGradient-9">
            <stop stop-color="#FFFFFF" offset="0%"></stop>
            <stop stop-color="#F0EEEE" offset="6.39349084%"></stop>
            <stop stop-color="#FFFFFF" offset="36.6568783%"></stop>
            <stop stop-color="#FFFFFF" offset="64.3915864%"></stop>
            <stop stop-color="#E8E8E8" offset="100%"></stop>
        </radialGradient>
        <radialGradient cx="95.0210278%" cy="3.05694708%" fx="95.0210278%" fy="3.05694708%" r="143.374128%" gradientTransform="translate(0.950210,0.030569),scale(1.000000,0.477876),rotate(112.925232),scale(1.000000,0.184083),translate(-0.950210,-0.030569)" id="radialGradient-10">
            <stop stop-color="#FFFFFF" offset="0%"></stop>
            <stop stop-color="#F0EEEE" offset="6.39349084%"></stop>
            <stop stop-color="#FFFFFF" offset="36.6568783%"></stop>
            <stop stop-color="#FFFFFF" offset="64.3915864%"></stop>
            <stop stop-color="#E8E8E8" offset="100%"></stop>
        </radialGradient>
        <radialGradient cx="82.1819679%" cy="16.3385445%" fx="82.1819679%" fy="16.3385445%" r="126.301469%" gradientTransform="translate(0.821820,0.163385),scale(1.000000,0.527065),rotate(114.149376),scale(1.000000,0.188371),translate(-0.821820,-0.163385)" id="radialGradient-11">
            <stop stop-color="#D51A27" offset="0%"></stop>
            <stop stop-color="#C41E22" offset="19.9991691%"></stop>
            <stop stop-color="#AA0F15" offset="45.3946002%"></stop>
            <stop stop-color="#CA3E47" offset="62.6279772%"></stop>
            <stop stop-color="#DE262D" offset="80.8062343%"></stop>
            <stop stop-color="#973637" offset="100%"></stop>
        </radialGradient>
        <radialGradient cx="82.1819679%" cy="16.3385445%" fx="82.1819679%" fy="16.3385445%" r="126.301469%" gradientTransform="translate(0.821820,0.163385),scale(1.000000,0.343985),rotate(106.310323),scale(1.000000,0.188371),translate(-0.821820,-0.163385)" id="radialGradient-12">
            <stop stop-color="#D51A27" offset="0%"></stop>
            <stop stop-color="#C41E22" offset="19.9991691%"></stop>
            <stop stop-color="#AA0F15" offset="45.3946002%"></stop>
            <stop stop-color="#CA3E47" offset="62.6279772%"></stop>
            <stop stop-color="#DE262D" offset="80.8062343%"></stop>
            <stop stop-color="#973637" offset="100%"></stop>
        </radialGradient>
        <radialGradient cx="82.1819679%" cy="16.3385445%" fx="82.1819679%" fy="16.3385445%" r="126.301469%" gradientTransform="translate(0.821820,0.163385),scale(1.000000,0.240833),rotate(101.577875),scale(1.000000,0.188371),translate(-0.821820,-0.163385)" id="radialGradient-13">
            <stop stop-color="#D51A27" offset="0%"></stop>
            <stop stop-color="#C41E22" offset="19.9991691%"></stop>
            <stop stop-color="#AA0F15" offset="45.3946002%"></stop>
            <stop stop-color="#CA3E47" offset="62.6279772%"></stop>
            <stop stop-color="#DE262D" offset="80.8062343%"></stop>
            <stop stop-color="#973637" offset="100%"></stop>
        </radialGradient>
        <radialGradient cx="95.0210278%" cy="3.05694708%" fx="95.0210278%" fy="3.05694708%" r="143.374128%" gradientTransform="translate(0.950210,0.030569),scale(1.000000,0.346509),rotate(107.049296),scale(1.000000,0.184083),translate(-0.950210,-0.030569)" id="radialGradient-14">
            <stop stop-color="#FFFFFF" offset="0%"></stop>
            <stop stop-color="#F0EEEE" offset="6.39349084%"></stop>
            <stop stop-color="#FFFFFF" offset="36.6568783%"></stop>
            <stop stop-color="#FFFFFF" offset="64.3915864%"></stop>
            <stop stop-color="#E8E8E8" offset="100%"></stop>
        </radialGradient>
        <radialGradient cx="79.0811548%" cy="6.67555244%" fx="79.0811548%" fy="6.67555244%" r="127.542599%" gradientTransform="translate(0.790812,0.066756),scale(0.936812,1.000000),rotate(119.703171),translate(-0.790812,-0.066756)" id="radialGradient-15">
            <stop stop-color="#174886" offset="0%"></stop>
            <stop stop-color="#0B1D32" offset="17.6424668%"></stop>
            <stop stop-color="#103A6F" offset="45.9276144%"></stop>
            <stop stop-color="#1E252D" offset="71.6983345%"></stop>
            <stop stop-color="#0A1521" offset="100%"></stop>
        </radialGradient>
        <path d="M11.9827271,12.5575952 C25.2665098,13.6340906 35.1528667,14.3074369 41.6417979,14.5776344 C44.629208,14.7020294 55.9606027,15.7197007 57.7628204,15.3359349 C58.9642989,15.0800911 60.1797639,14.8245533 61.4092154,14.5693217 L67.6384701,64.6965721 C59.009478,63.7995771 52.6737046,63.3350505 48.63115,63.3029925 C44.5885953,63.2709344 36.108734,63.6179707 23.1915659,64.3441013 L11.9827271,12.5575952 Z" id="path-16"></path>
        <radialGradient cx="95.0210278%" cy="3.05694708%" fx="95.0210278%" fy="3.05694708%" r="143.374128%" gradientTransform="translate(0.950210,0.030569),scale(1.000000,0.475281),rotate(112.813519),scale(1.000000,0.184083),translate(-0.950210,-0.030569)" id="radialGradient-17">
            <stop stop-color="#FFFFFF" offset="0%"></stop>
            <stop stop-color="#F0EEEE" offset="6.39349084%"></stop>
            <stop stop-color="#FFFFFF" offset="36.6568783%"></stop>
            <stop stop-color="#FFFFFF" offset="64.3915864%"></stop>
            <stop stop-color="#E8E8E8" offset="100%"></stop>
        </radialGradient>
        <radialGradient cx="50%" cy="8.02774235%" fx="50%" fy="8.02774235%" r="89.3853635%" gradientTransform="translate(0.500000,0.080277),scale(0.938571,1.000000),rotate(90.000000),translate(-0.500000,-0.080277)" id="radialGradient-18">
            <stop stop-color="#FFF5BD" offset="0%"></stop>
            <stop stop-color="#FFFFFB" offset="29.2590083%"></stop>
            <stop stop-color="#FCDE7C" offset="63.6459662%"></stop>
            <stop stop-color="#60431A" offset="100%"></stop>
        </radialGradient>
        <radialGradient cx="50%" cy="0%" fx="50%" fy="0%" r="79.4044962%" gradientTransform="translate(0.500000,0.000000),scale(1.000000,0.031921),rotate(90.000000),scale(1.000000,0.323069),translate(-0.500000,-0.000000)" id="radialGradient-19">
            <stop stop-color="#F0F1F8" offset="0%"></stop>
            <stop stop-color="#F0F2D4" offset="21.6398278%"></stop>
            <stop stop-color="#CFD0D0" offset="42.444595%"></stop>
            <stop stop-color="#D4D4CB" offset="55.4846939%"></stop>
            <stop stop-color="#7F8185" offset="60.3894292%"></stop>
            <stop stop-color="#C2C8D5" offset="68.2397959%"></stop>
            <stop stop-color="#DCDDE0" offset="100%"></stop>
        </radialGradient>
        <filter x="-6.0%" y="-10.5%" width="111.0%" height="142.7%" filterUnits="objectBoundingBox" id="filter-20">
            <feOffset dx="-2" dy="9" in="SourceAlpha" result="shadowOffsetOuter1"></feOffset>
            <feGaussianBlur stdDeviation="4.5" in="shadowOffsetOuter1" result="shadowBlurOuter1"></feGaussianBlur>
            <feColorMatrix values="0 0 0 0 0   0 0 0 0 0   0 0 0 0 0  0 0 0 0.47693048 0" type="matrix" in="shadowBlurOuter1" result="shadowMatrixOuter1"></feColorMatrix>
            <feMerge>
                <feMergeNode in="shadowMatrixOuter1"></feMergeNode>
                <feMergeNode in="SourceGraphic"></feMergeNode>
            </feMerge>
        </filter>
        <radialGradient cx="50%" cy="0%" fx="50%" fy="0%" r="100%" gradientTransform="translate(0.500000,0.000000),scale(1.000000,0.119048),rotate(90.000000),translate(-0.500000,-0.000000)" id="radialGradient-21">
            <stop stop-color="#C8BEB1" offset="0%"></stop>
            <stop stop-color="#898278" offset="100%"></stop>
        </radialGradient>
        <radialGradient cx="50%" cy="0%" fx="50%" fy="0%" r="100%" gradientTransform="translate(0.500000,0.000000),scale(1.000000,0.102564),rotate(90.000000),translate(-0.500000,-0.000000)" id="radialGradient-22">
            <stop stop-color="#C8BEB1" offset="0%"></stop>
            <stop stop-color="#898278" offset="100%"></stop>
        </radialGradient>
        <radialGradient cx="50%" cy="0%" fx="50%" fy="0%" r="100%" gradientTransform="translate(0.500000,0.000000),scale(1.000000,0.085714),rotate(90.000000),translate(-0.500000,-0.000000)" id="radialGradient-23">
            <stop stop-color="#C8BEB1" offset="0%"></stop>
            <stop stop-color="#898278" offset="100%"></stop>
        </radialGradient>
        <radialGradient cx="50%" cy="0%" fx="50%" fy="0%" r="100%" gradientTransform="translate(0.500000,0.000000),scale(1.000000,0.076923),rotate(90.000000),translate(-0.500000,-0.000000)" id="radialGradient-24">
            <stop stop-color="#C8BEB1" offset="0%"></stop>
            <stop stop-color="#898278" offset="100%"></stop>
        </radialGradient>
        <radialGradient cx="50%" cy="0%" fx="50%" fy="0%" r="100%" gradientTransform="translate(0.500000,0.000000),scale(1.000000,0.071429),rotate(90.000000),translate(-0.500000,-0.000000)" id="radialGradient-25">
            <stop stop-color="#C8BEB1" offset="0%"></stop>
            <stop stop-color="#898278" offset="100%"></stop>
        </radialGradient>
        <radialGradient cx="50%" cy="0%" fx="50%" fy="0%" r="100%" gradientTransform="translate(0.500000,0.000000),scale(0.068966,1.000000),rotate(90.000000),translate(-0.500000,-0.000000)" id="radialGradient-26">
            <stop stop-color="#C8BEB1" offset="0%"></stop>
            <stop stop-color="#898278" offset="100%"></stop>
        </radialGradient>
        <radialGradient cx="20.2051494%" cy="50%" fx="20.2051494%" fy="50%" r="77.0803437%" gradientTransform="translate(0.202051,0.500000),scale(0.667011,1.000000),rotate(-23.636280),scale(1.000000,0.671058),translate(-0.202051,-0.500000)" id="radialGradient-27">
            <stop stop-color="#9B938A" offset="0%"></stop>
            <stop stop-color="#8E8A85" offset="100%"></stop>
        </radialGradient>
        <radialGradient cx="20.2051494%" cy="50%" fx="20.2051494%" fy="50%" r="77.0803437%" gradientTransform="translate(0.202051,0.500000),scale(0.684606,1.000000),rotate(-24.189064),scale(1.000000,0.671058),translate(-0.202051,-0.500000)" id="radialGradient-28">
            <stop stop-color="#CBC1B6" offset="0%"></stop>
            <stop stop-color="#BEB5AB" offset="31.911078%"></stop>
            <stop stop-color="#BAB1A8" offset="41.2070549%"></stop>
            <stop stop-color="#9C978E" offset="83.3688081%"></stop>
            <stop stop-color="#8E8A85" offset="100%"></stop>
        </radialGradient>
        <radialGradient cx="19.5536579%" cy="0%" fx="19.5536579%" fy="0%" r="132.96067%" gradientTransform="translate(0.195537,0.000000),scale(1.000000,0.762925),rotate(56.236069),scale(1.000000,0.461537),translate(-0.195537,-0.000000)" id="radialGradient-29">
            <stop stop-color="#393834" offset="0%"></stop>
            <stop stop-color="#33322F" offset="33.7690178%"></stop>
            <stop stop-color="#1B1A16" offset="57.217346%"></stop>
            <stop stop-color="#3F3F38" offset="100%"></stop>
        </radialGradient>
        <radialGradient cx="11.8503289%" cy="15.0948661%" fx="11.8503289%" fy="15.0948661%" r="119.584233%" gradientTransform="translate(0.118503,0.150949),scale(0.328125,1.000000),rotate(16.783209),scale(1.000000,0.407061),translate(-0.118503,-0.150949)" id="radialGradient-30">
            <stop stop-color="#7D7A79" stop-opacity="0.742640399" offset="0%"></stop>
            <stop stop-color="#7D7A79" stop-opacity="0.898282072" offset="28.4174762%"></stop>
            <stop stop-color="#7D7A79" stop-opacity="1.00392976" offset="43.6373295%"></stop>
            <stop stop-color="#7D7A79" stop-opacity="0.932240257" offset="62.18534%"></stop>
            <stop stop-color="#7D7A79" offset="80.0053708%"></stop>
            <stop stop-color="#7D7A79" stop-opacity="0.837322446" offset="90.5642864%"></stop>
            <stop stop-color="#7D7C7A" offset="100%"></stop>
        </radialGradient>
        <rect id="path-31" x="0" y="2.59073734" width="248.710784" height="81.6082261"></rect>
        <path d="M20.8040626,11.8407955 L15.9735781,24.9741134 L25.6345471,24.9741134 L20.8040626,11.8407955 Z M0.59929776,42.5017544 L16.5051979,0.324474671 L24.9108116,0.324474671 L41.5023977,42.5017544 L32.1021198,42.5017544 L28.6331504,33.0587825 L13.2153637,33.0587825 L9.9828143,42.5017544 L0.59929776,42.5017544 Z" id="path-32"></path>
        <rect id="path-34" x="0" y="0" width="331.614379" height="2.59073734"></rect>
        <filter x="-0.2%" y="-19.3%" width="100.3%" height="138.6%" filterUnits="objectBoundingBox" id="filter-35">
            <feGaussianBlur stdDeviation="0.5" in="SourceAlpha" result="shadowBlurInner1"></feGaussianBlur>
            <feOffset dx="0" dy="0" in="shadowBlurInner1" result="shadowOffsetInner1"></feOffset>
            <feComposite in="shadowOffsetInner1" in2="SourceAlpha" operator="arithmetic" k2="-1" k3="1" result="shadowInnerInner1"></feComposite>
            <feColorMatrix values="0 0 0 0 0.784313725   0 0 0 0 0.77254902   0 0 0 0 0.741176471  0 0 0 1 0" type="matrix" in="shadowInnerInner1"></feColorMatrix>
        </filter>
        <rect id="path-36" x="0" y="84.1989634" width="331.614379" height="1.29536867"></rect>
        <filter x="-0.2%" y="-38.6%" width="100.3%" height="177.2%" filterUnits="objectBoundingBox" id="filter-37">
            <feGaussianBlur stdDeviation="0.5" in="SourceAlpha" result="shadowBlurInner1"></feGaussianBlur>
            <feOffset dx="0" dy="0" in="shadowBlurInner1" result="shadowOffsetInner1"></feOffset>
            <feComposite in="shadowOffsetInner1" in2="SourceAlpha" operator="arithmetic" k2="-1" k3="1" result="shadowInnerInner1"></feComposite>
            <feColorMatrix values="0 0 0 0 0.784313725   0 0 0 0 0.77254902   0 0 0 0 0.741176471  0 0 0 1 0" type="matrix" in="shadowInnerInner1"></feColorMatrix>
        </filter>
        <linearGradient x1="94.7937012%" y1="50%" x2="6.8359375%" y2="50%" id="linearGradient-38">
            <stop stop-color="#6B6767" stop-opacity="0.992498868" offset="0%"></stop>
            <stop stop-color="#AEACAC" offset="100%"></stop>
        </linearGradient>
    </defs>
    <g id="Images" stroke="none" stroke-width="1" fill="none" fill-rule="evenodd">
        <g id="justStreet">
            <g id="Flag" transform="translate(-12.000000, 42.000000)">
                <g transform="translate(86.966887, 113.528481) scale(-1, 1) rotate(12.000000) translate(-86.966887, -113.528481) translate(1.298013, 19.462025)">
                    <g filter="url(#filter-1)" transform="translate(0.000000, 20.759494)">
                        <path d="M106.604408,60.7212656 C96.3613308,74.3178468 89.2725391,84.3216995 85.3380329,90.7328236 C79.4362737,100.34951 68.0465168,123.526532 61.1815501,133.708929 C55.3466147,142.363541 48.5888252,149.184642 44.1032957,154.731971 C41.1129428,158.43019 37.799671,162.540318 34.1634804,167.062355 C33.492523,165.502479 32.8840793,164.435616 32.3381493,163.861764 C31.7922194,163.287912 30.8894833,162.766306 29.629941,162.296946 C36.2302337,154.218115 40.8356033,148.565132 43.4460498,145.337996 C47.1824633,140.718895 50.6740804,136.912614 52.8205195,133.708929 C54.8160582,130.730471 60.4589613,124.45272 67.2311284,113.517077 C70.1679461,108.774727 74.2994679,98.3870171 82.8782725,83.6195547 C88.5974755,73.7745798 94.5633928,64.6038184 100.776024,56.1072704 C102.277966,57.7444074 103.416474,58.8697669 104.191549,59.483349 C104.966623,60.0969311 105.77091,60.5095699 106.604408,60.7212656 Z" id="Path-50" fill="url(#radialGradient-2)"></path>
                        <path d="M27.7223125,161.332714 C40.0326706,147.591324 48.7959196,136.9211 54.0120596,129.322041 C56.0696857,126.324419 61.6234973,120.97506 66.9986554,112.491905 C70.5820941,106.836469 81.9318499,87.3662482 101.047923,54.0812438 C99.578608,53.7280565 98.4795652,53.2699763 97.7507942,52.7070031 C97.0220233,52.1440299 96.2673269,51.3675721 95.4867052,50.3776299 C92.91051,53.7699372 91.0500402,56.3684937 89.9052959,58.1732995 C88.1881794,60.8805082 81.7525317,72.1325099 79.2388052,76.4453984 C74.0586699,85.3331378 64.4817129,103.905637 56.2702865,116.006409 C50.5223829,124.476809 44.1696581,130.419686 39.5345261,136.328689 C36.4444381,140.268024 31.2907479,146.809989 24.0734556,155.954584 L27.7223125,161.332714 Z" id="Path-51" fill="url(#radialGradient-3)"></path>
                        <path d="M25.0295362,156.697179 C25.0295362,156.697179 23.106178,155.610887 19.2594617,153.438304 C23.4797335,150.527486 26.1766391,148.180048 27.3501785,146.39599 C27.7139776,145.842929 29.9228361,142.035304 34.3656612,135.521457 C38.8084863,129.007609 38.8509981,130.084721 41.1035415,126.469587 C43.5552193,122.534861 51.9437134,112.46907 59.1153767,100.637423 C61.8380312,96.1456501 65.2263923,87.5117446 71.2905888,76.6576994 C75.3333865,69.4216693 81.2082485,59.717476 88.9151749,47.5451197 L95.39003,51.8138412 C92.0400822,55.3688658 89.8817972,57.9162878 88.9151749,59.4561072 C87.4652414,61.7658364 79.4546524,77.3742409 76.6467948,82.2574664 C71.5104041,91.1903104 62.2646856,109.429938 57.3247458,116.793692 C52.9356579,123.336315 46.4342309,129.705497 41.1035415,136.205035 C35.7728521,142.704573 25.0295362,156.697179 25.0295362,156.697179 Z" id="Path-52" fill="url(#radialGradient-4)"></path>
                        <path d="M18.5372517,152.970125 C22.328356,150.87104 25.0933946,148.7862 26.8323675,146.715606 C29.4408269,143.609714 49.4266225,115.153359 57.1417374,103.587137 C64.9909564,91.81987 59.0380814,99.6820724 68.8197369,80.996426 C75.3408406,68.5393284 82.1212908,57.2383241 89.1610875,47.0934131 L83.1159458,42.7112898 C80.9416,45.4723863 79.4687648,47.5265 78.6974402,48.873631 C77.5404534,50.8943273 67.4218682,70.1326733 64.2630639,75.6744617 C58.7406836,85.3628947 59.7929205,85.4444875 57.5483172,89.1157397 C46.7498848,106.777555 45.6862853,108.302653 42.3029995,113.55794 C41.6528781,114.567779 32.9494434,125.791184 30.0124366,129.94418 C28.7173461,131.775468 27.6716601,134.465802 25.5704806,138.136033 C23.4693012,141.806263 24.597777,140.858496 23.4323714,142.248906 C20.3249678,145.956255 17.652569,147.830447 15.4151749,147.87148 L18.5372517,152.970125 Z" id="Path-53" fill="url(#radialGradient-5)"></path>
                        <path d="M12.7266142,141.631848 L14.8377871,147.318409 C18.7406609,146.268757 21.1501403,145.039076 22.0662252,143.629367 C22.385256,143.138429 24.8382702,137.264056 30.3847915,129.052487 C35.9313127,120.840918 41.2066829,115.496784 47.9938496,104.220666 C57.1742993,88.9683759 58.7875189,85.0271461 70.2010943,64.1714671 C77.8101445,50.267681 82.1634747,42.8857956 83.261085,42.0258109 L78.0779051,38.0231717 C76.0343857,39.6073128 74.670669,40.9415259 73.986755,42.0258109 C73.6830766,42.5072661 70.2285211,51.0251759 62.1423841,64.1714671 C60.2444333,67.2571201 57.5454992,74.6063792 52.9003777,81.9204287 C52.3022008,82.8622975 51.8355305,85.3694697 50.469138,87.4327686 C49.867832,88.3407611 44.1815331,96.521536 33.4102413,111.975093 C31.7624718,114.339146 29.8557923,119.169792 26.9382114,123.353256 C25.9942476,124.706788 20.8839506,134.832745 18.6247154,137.742611 C17.1185587,139.682521 15.152525,140.978934 12.7266142,141.631848 Z" id="Path-54" fill="url(#radialGradient-6)"></path>
                        <path d="M9.04743119,135.994703 C10.544658,136.809664 11.5542943,137.65342 12.07634,138.52597 C12.5983858,139.39852 12.5983858,140.242276 12.07634,141.057237 C14.8849384,140.167144 16.7199877,139.323389 17.581488,138.52597 C18.8737384,137.329842 20.9636491,132.774 22.0662252,131.316088 C24.5411269,128.04358 29.3568074,118.11038 32.0618145,113.873755 C34.2149577,110.501467 41.2660681,100.926608 49.964003,86.5147844 C51.8546626,83.3821037 53.9592601,78.72361 56.6232926,74.1514568 C56.9581052,73.5768338 62.745926,62.6993439 73.986755,41.5189873 L77.8231193,37.3592328 L71.7649847,32.8947507 C57.3468212,58.6691541 47.4505266,76.1389404 42.0761007,85.3041096 C34.014462,99.0518634 19.3057287,122.392754 19.3057287,123.978866 C19.3057287,127.698635 13.4304434,131.376017 13.2374534,131.821961 C12.4633778,133.610626 11.0667037,135.00154 9.04743119,135.994703 Z" id="Path-55" fill="url(#radialGradient-7)"></path>
                        <path d="M1.74864187,133.001238 L7.93435007,134.936709 C9.25891144,134.205675 10.2183018,133.560518 10.8125212,133.001238 C11.7038502,132.162319 16.5689013,126.593877 17.446411,125.232492 C18.5466604,123.525543 27.8746779,107.369549 45.4304636,76.7645089 L41.0054027,72.2388313 C35.6224221,80.629347 31.8632076,86.6389062 29.7277592,90.267509 C28.1568177,92.9368887 23.457822,102.817657 18.3915097,111.333401 C13.3251974,119.849145 7.50686073,127.630781 6.75081749,128.063851 C4.93485428,129.104058 3.26746241,130.749853 1.74864187,133.001238 Z" id="Path-56" fill="url(#radialGradient-8)"></path>
                        <path d="M1.73881804,133.139703 C0.857688468,132.384201 0.510157252,131.708119 0.696224389,131.111458 C0.882291526,130.514797 2.2092481,128.050156 4.67709411,123.717535 C7.16362845,119.103196 8.96920628,115.746123 10.0938276,113.646317 C11.7807596,110.496609 17.1989166,100.401807 19.6292814,96.1580532 C23.1137507,90.0736863 28.7251651,80.7590081 36.4635244,68.2140186 L41.4486432,71.7206042 C36.0661725,80.2267611 32.2803005,86.4299649 30.0910273,90.3302156 C26.8071174,96.1805917 21.2939904,107.750539 16.8814608,114.575388 C11.5904952,122.758913 7.62274432,127.504915 4.67709411,130.335701 C2.71332731,132.222892 1.73390195,133.157559 1.73881804,133.139703 Z" id="Path-57" fill="url(#radialGradient-9)"></path>
                        <path d="M5.07099803,112.203771 C6.41636505,107.078539 7.32322082,103.322131 7.79156535,100.934549 C8.49408213,97.3531747 9.05538168,91.5462913 9.64193139,89.2810908 C11.2316177,83.1418701 11.4949275,84.8107378 12.0668331,82.8748408 C13.2421746,78.8963166 15.4023131,74.7778943 18.1243339,70.0924335 C19.9390144,66.968793 22.3117336,63.2294909 25.2424915,58.8745272 L31.0984453,62.6617663 C21.1289768,79.0861317 14.9927797,89.5075859 12.6898541,93.9261289 C11.2198634,96.7465488 9.441071,102.68691 7.79156535,107.158342 C6.14205969,111.629774 3.76425017,117.10186 5.07099803,112.203771 Z" id="Path-59.5" fill="url(#radialGradient-10)"></path>
                        <path d="M4.61086248,115.086013 C5.81151095,111.827789 7.59561802,109.880505 8.1803989,107.926497 C8.35822347,107.332307 8.96212497,105.100594 9.99210343,101.231357 C13.0084792,93.9480847 15.5150348,88.501843 17.5117705,84.8926322 C19.5085061,81.2834214 24.0705664,73.9527463 31.1979512,62.900607 L36.5167632,67.689773 C31.7241801,74.8427582 28.2792902,80.2352555 26.1820933,83.8672648 C25.1684228,85.6227799 19.7483678,97.1975323 8.1803989,118.119986 C0.468419619,132.068288 -1.49455077,135.015784 2.29148774,126.962473 C3.03730525,121.216983 3.81043016,117.258162 4.61086248,115.086013 Z" id="Path-58" fill="url(#radialGradient-11)"></path>
                        <path d="M4.44987841,97.243606 C5.1523952,93.662232 7.22568085,84.7527699 7.7975864,82.8168729 C8.97292794,78.8383486 10.2102602,70.8854892 12.9322809,66.2000284 C14.7469614,63.0763879 16.9541543,59.1246422 19.5538597,54.3447915 L24.562112,57.7373418 C16.4602277,75.6397313 11.2578227,86.8001977 8.95489704,91.2187407 C7.48490632,94.0391606 8.52428577,99.1581509 6.87478011,103.629583 C6.37791701,104.976465 5.09533638,114.434466 4.44987841,114.046075 C3.80442044,113.657684 3.95897331,99.7462007 4.44987841,97.243606 Z" id="Path-59" fill="url(#radialGradient-12)"></path>
                        <path d="M4.46984297,87.5844989 C4.94096901,77.7275835 5.67173525,70.1445526 6.66214171,64.835406 C7.65254817,59.5262593 9.28816317,54.4241298 11.5689867,49.5290172 L13.6348432,50.9357694 C11.202239,57.3774204 9.23398695,63.6051207 7.73008718,69.6188702 C6.22618741,75.6326197 5.13943934,81.6211626 4.46984297,87.5844989 Z" id="Path-61" fill="url(#radialGradient-13)"></path>
                        <path d="M19.1729486,53.8756629 C15.4640994,59.881251 12.9309771,64.7142361 11.5735817,68.3746183 C10.2161863,72.0350006 7.68306403,80.8637617 3.97421487,94.8609017 C5.4160997,83.6565106 7.13833342,73.9035356 9.14091603,65.6019766 C11.1434986,57.3004176 12.8657324,52.4325883 14.3076172,50.9984888 L19.1729486,53.8756629 Z" id="Path-60" fill="url(#radialGradient-14)"></path>
                        <g id="Rectangle" transform="translate(39.810599, 38.627084) rotate(37.000000) translate(-39.810599, -38.627084) ">
                            <use fill="url(#radialGradient-15)" fill-rule="evenodd" xlink:href="#path-16"></use>
                            <path stroke="#1D1C1C" stroke-width="0.5" d="M12.0029205,12.3084121 C25.2837096,13.3846648 35.1672432,14.0578189 41.6521988,14.3278508 C42.1838429,14.3499884 42.9812668,14.3996282 44.2199886,14.4854705 C44.773162,14.5238049 47.2430029,14.6993703 47.886866,14.7442374 C48.4594701,14.7841389 48.9811356,14.8198005 49.4794121,14.8529805 C54.1199465,15.1619912 56.9113895,15.2616342 57.7107526,15.0914172 C58.9126505,14.835484 60.1285327,14.5798586 61.3583994,14.3245408 L61.6238711,14.2694294 L67.9253334,64.9777391 L67.6126216,64.9452323 C58.9909411,64.0489973 52.6619073,63.5849649 48.6291675,63.5529846 C44.5938347,63.5209838 36.1172932,63.8678842 23.2055973,64.5937072 L22.9923965,64.6056922 L11.667114,12.2811989 L12.0029205,12.3084121 Z"></path>
                        </g>
                    </g>
                    <g id="Stars" transform="translate(41.379130, 61.712191) rotate(299.000000) translate(-41.379130, -61.712191) translate(14.769859, 40.303963)" fill="url(#radialGradient-17)">
                        <polygon id="Star-Copy-48" transform="translate(42.955178, 35.265289) rotate(301.000000) translate(-42.955178, -35.265289) " points="42.9551777 37.2785093 42.05694 38.3232247 42.2284881 36.1104819 41.5017985 34.5434088 42.5060589 34.2205739 42.9551777 32.207354 43.4042966 34.2205739 44.408557 34.5434088 43.6818673 36.1104819 43.8534155 38.3232247"></polygon>
                        <polygon id="Star-Copy-47" transform="translate(30.997393, 37.441459) rotate(301.000000) translate(-30.997393, -37.441459) " points="30.9973934 39.4546792 30.0991556 40.4993946 30.2707038 38.2866518 29.5440142 36.7195786 30.5482745 36.3967438 30.9973934 34.3835239 31.4465123 36.3967438 32.4507726 36.7195786 31.724083 38.2866518 31.8956312 40.4993946"></polygon>
                        <polygon id="Star-Copy-46" transform="translate(36.902166, 32.782142) rotate(301.000000) translate(-36.902166, -32.782142) " points="36.9021659 34.7953615 36.0039282 35.840077 36.1754763 33.6273342 35.4487867 32.060261 36.4530471 31.7374262 36.9021659 29.7242063 37.3512848 31.7374262 38.3555452 32.060261 37.6288556 33.6273342 37.8004037 35.840077"></polygon>
                        <polygon id="Star-Copy-45" transform="translate(25.837394, 37.441459) rotate(301.000000) translate(-25.837394, -37.441459) " points="25.8373942 39.4546792 24.9391564 40.4993946 25.1107045 38.2866518 24.3840149 36.7195786 25.3882753 36.3967438 25.8373942 34.3835239 26.286513 36.3967438 27.2907734 36.7195786 26.5640838 38.2866518 26.7356319 40.4993946"></polygon>
                        <polygon id="Star-Copy-44" transform="translate(28.559232, 32.382291) rotate(301.000000) translate(-28.559232, -32.382291) " points="28.5592317 34.3955109 27.6609939 35.4402263 27.8325421 33.2274835 27.1058525 31.6604103 28.1101128 31.3375755 28.5592317 29.3243556 29.0083506 31.3375755 30.0126109 31.6604103 29.2859213 33.2274835 29.4574695 35.4402263"></polygon>
                        <polygon id="Star-Copy-43" transform="translate(19.713734, 32.382291) rotate(301.000000) translate(-19.713734, -32.382291) " points="19.7137338 34.3955109 18.815496 35.4402263 18.9870442 33.2274835 18.2603546 31.6604103 19.2646149 31.3375755 19.7137338 29.3243556 20.1628527 31.3375755 21.167113 31.6604103 20.4404234 33.2274835 20.6119716 35.4402263"></polygon>
                        <polygon id="Star-Copy-42" transform="translate(14.187487, 34.558461) rotate(301.000000) translate(-14.187487, -34.558461) " points="14.1874865 36.5716808 13.2892487 37.6163962 13.4607969 35.4036534 12.7341073 33.8365802 13.7383676 33.5137454 14.1874865 31.5005255 14.6366054 33.5137454 15.6408657 33.8365802 14.9141761 35.4036534 15.0857243 37.6163962"></polygon>
                        <polygon id="Star-Copy-42" transform="translate(7.252568, 35.434004) rotate(301.000000) translate(-7.252568, -35.434004) " points="7.25256807 37.4472237 6.3543303 38.4919391 6.52587845 36.2791963 5.79918884 34.7121231 6.80344919 34.3892883 7.25256807 32.3760684 7.70168695 34.3892883 8.70594729 34.7121231 7.97925768 36.2791963 8.15080583 38.4919391"></polygon>
                        <polygon id="Star-Copy-42" transform="translate(13.804819, 39.220885) rotate(301.000000) translate(-13.804819, -39.220885) " points="13.8048185 41.2341052 12.9065807 42.2788207 13.0781289 40.0660778 12.3514393 38.4990047 13.3556996 38.1761699 13.8048185 36.1629499 14.2539374 38.1761699 15.2581977 38.4990047 14.5315081 40.0660778 14.7030563 42.2788207"></polygon>
                        <polygon id="Star-Copy-42" transform="translate(4.476053, 38.455871) rotate(301.000000) translate(-4.476053, -38.455871) " points="4.47605348 40.4690905 3.57781572 41.5138059 3.74936387 39.3010631 3.02267425 37.73399 4.0269346 37.4111551 4.47605348 35.3979352 4.92517236 37.4111551 5.92943271 37.73399 5.20274309 39.3010631 5.37429124 41.5138059"></polygon>
                        <polygon id="Star-Copy-41" transform="translate(9.978871, 29.899143) rotate(301.000000) translate(-9.978871, -29.899143) " points="9.97887118 31.9123631 9.08063342 32.9570786 9.25218156 30.7443357 8.52549195 29.1772626 9.5297523 28.8544278 9.97887118 26.8412078 10.4279901 28.8544278 11.4322504 29.1772626 10.7055608 30.7443357 10.8771089 32.9570786"></polygon>
                        <polygon id="Star-Copy-40" transform="translate(6.733917, 14.192467) rotate(301.000000) translate(-6.733917, -14.192467) " points="6.73391697 16.205687 5.83567921 17.2504024 6.00722736 15.0376596 5.28053775 13.4705865 6.28479809 13.1477516 6.73391697 11.1345317 7.18303585 13.1477516 8.1872962 13.4705865 7.46060659 15.0376596 7.63215473 17.2504024"></polygon>
                        <polygon id="Star-Copy-39" transform="translate(46.200132, 29.899143) rotate(301.000000) translate(-46.200132, -29.899143) " points="46.2001319 31.9123631 45.3018942 32.9570786 45.4734423 30.7443357 44.7467527 29.1772626 45.7510131 28.8544278 46.2001319 26.8412078 46.6492508 28.8544278 47.6535112 29.1772626 46.9268216 30.7443357 47.0983697 32.9570786"></polygon>
                        <polygon id="Star-Copy-38" transform="translate(40.122919, 28.792464) rotate(301.000000) translate(-40.122919, -28.792464) " points="40.1229193 30.8056839 39.2246816 31.8503994 39.3962297 29.6376566 38.6695401 28.0705834 39.6738004 27.7477486 40.1229193 25.7345287 40.5720382 27.7477486 41.5762985 28.0705834 40.8496089 29.6376566 41.0211571 31.8503994"></polygon>
                        <polygon id="Star-Copy-37" transform="translate(35.572257, 36.862315) rotate(301.000000) translate(-35.572257, -36.862315) " points="35.5722568 38.8755347 34.674019 39.9202502 34.8455672 37.7075074 34.1188776 36.1404342 35.1231379 35.8175994 35.5722568 33.8043795 36.0213757 35.8175994 37.025636 36.1404342 36.2989464 37.7075074 36.4704945 39.9202502"></polygon>
                        <polygon id="Star-Copy-36" transform="translate(26.412873, 23.921538) rotate(301.000000) translate(-26.412873, -23.921538) " points="26.4128733 25.9347578 25.5146356 26.9794733 25.6861837 24.7667305 24.9594941 23.1996573 25.9637545 22.8768225 26.4128733 20.8636025 26.8619922 22.8768225 27.8662526 23.1996573 27.139563 24.7667305 27.3111111 26.9794733"></polygon>
                        <polygon id="Star-Copy-35" transform="translate(31.804186, 28.792464) rotate(301.000000) translate(-31.804186, -28.792464) " points="31.8041859 30.8056839 30.9059481 31.8503994 31.0774963 29.6376566 30.3508067 28.0705834 31.355067 27.7477486 31.8041859 25.7345287 32.2533048 27.7477486 33.2575651 28.0705834 32.5308755 29.6376566 32.7024237 31.8503994"></polygon>
                        <polygon id="Star-Copy-34" transform="translate(17.432441, 23.921538) rotate(301.000000) translate(-17.432441, -23.921538) " points="17.4324407 25.9347578 16.5342029 26.9794733 16.7057511 24.7667305 15.9790615 23.1996573 16.9833218 22.8768225 17.4324407 20.8636025 17.8815596 22.8768225 18.8858199 23.1996573 18.1591303 24.7667305 18.3306785 26.9794733"></polygon>
                        <polygon id="Star-Copy-33" transform="translate(23.187230, 28.792464) rotate(301.000000) translate(-23.187230, -28.792464) " points="23.1872305 30.8056839 22.2889927 31.8503994 22.4605408 29.6376566 21.7338512 28.0705834 22.7381116 27.7477486 23.1872305 25.7345287 23.6363493 27.7477486 24.6406097 28.0705834 23.9139201 29.6376566 24.0854682 31.8503994"></polygon>
                        <polygon id="Star-Copy-32" transform="translate(19.922965, 38.148288) rotate(301.000000) translate(-19.922965, -38.148288) " points="19.9229649 40.1615077 19.0247272 41.2062231 19.1962753 38.9934803 18.4695857 37.4264072 19.473846 37.1035723 19.9229649 35.0903524 20.3720838 37.1035723 21.3763442 37.4264072 20.6496545 38.9934803 20.8212027 41.2062231"></polygon>
                        <polygon id="Star-Copy-31" transform="translate(13.750352, 27.016145) rotate(301.000000) translate(-13.750352, -27.016145) " points="13.7503519 29.0293647 12.8521141 30.0740801 13.0236623 27.8613373 12.2969726 26.2942642 13.301233 25.9714293 13.7503519 23.9582094 14.1994708 25.9714293 15.2037311 26.2942642 14.4770415 27.8613373 14.6485896 30.0740801"></polygon>
                        <polygon id="Star-Copy-30" transform="translate(7.915288, 23.026467) rotate(301.000000) translate(-7.915288, -23.026467) " points="7.91528825 25.0396871 7.01705049 26.0844026 7.18859864 23.8716598 6.46190903 22.3045866 7.46616937 21.9817518 7.91528825 19.9685318 8.36440713 21.9817518 9.36866748 22.3045866 8.64197787 23.8716598 8.81352601 26.0844026"></polygon>
                        <polygon id="Star-Copy-29" transform="translate(44.552689, 19.958464) rotate(301.000000) translate(-44.552689, -19.958464) " points="44.5526894 21.9716838 43.6544516 23.0163993 43.8259998 20.8036564 43.0993102 19.2365833 44.1035705 18.9137485 44.5526894 16.9005285 45.0018083 18.9137485 46.0060686 19.2365833 45.279379 20.8036564 45.4509272 23.0163993"></polygon>
                        <polygon id="Star-Copy-28" transform="translate(40.732256, 23.921538) rotate(301.000000) translate(-40.732256, -23.921538) " points="40.732256 25.9347578 39.8340183 26.9794733 40.0055664 24.7667305 39.2788768 23.1996573 40.2831371 22.8768225 40.732256 20.8636025 41.1813749 22.8768225 42.1856352 23.1996573 41.4589456 24.7667305 41.6304938 26.9794733"></polygon>
                        <polygon id="Star-Copy-27" transform="translate(36.147736, 19.958464) rotate(301.000000) translate(-36.147736, -19.958464) " points="36.147736 21.9716838 35.2494982 23.0163993 35.4210463 20.8036564 34.6943567 19.2365833 35.6986171 18.9137485 36.147736 16.9005285 36.5968548 18.9137485 37.6011152 19.2365833 36.8744256 20.8036564 37.0459737 23.0163993"></polygon>
                        <polygon id="Star-Copy-26" transform="translate(38.817211, 15.827015) rotate(301.000000) translate(-38.817211, -15.827015) " points="38.817211 17.8402348 37.9189732 18.8849502 38.0905214 16.6722074 37.3638318 15.1051342 38.3680921 14.7822994 38.817211 12.7690795 39.2663299 14.7822994 40.2705902 15.1051342 39.5439006 16.6722074 39.7154487 18.8849502"></polygon>
                        <polygon id="Star-Copy-25" transform="translate(29.082348, 19.958464) rotate(301.000000) translate(-29.082348, -19.958464) " points="29.0823484 21.9716838 28.1841106 23.0163993 28.3556588 20.8036564 27.6289691 19.2365833 28.6332295 18.9137485 29.0823484 16.9005285 29.5314672 18.9137485 30.5357276 19.2365833 29.809038 20.8036564 29.9805861 23.0163993"></polygon>
                        <polygon id="Star-Copy-24" transform="translate(30.412258, 15.827015) rotate(301.000000) translate(-30.412258, -15.827015) " points="30.4122575 17.8402348 29.5140198 18.8849502 29.6855679 16.6722074 28.9588783 15.1051342 29.9631387 14.7822994 30.4122575 12.7690795 30.8613764 14.7822994 31.8656368 15.1051342 31.1389471 16.6722074 31.3104953 18.8849502"></polygon>
                        <polygon id="Star-Copy-23" transform="translate(19.922965, 19.958464) rotate(301.000000) translate(-19.922965, -19.958464) " points="19.9229649 21.9716838 19.0247272 23.0163993 19.1962753 20.8036564 18.4695857 19.2365833 19.473846 18.9137485 19.9229649 16.9005285 20.3720838 18.9137485 21.3763442 19.2365833 20.6496545 20.8036564 20.8212027 23.0163993"></polygon>
                        <polygon id="Star-Copy-22" transform="translate(11.518011, 19.958464) rotate(301.000000) translate(-11.518011, -19.958464) " points="11.5180115 21.9716838 10.6197737 23.0163993 10.7913219 20.8036564 10.0646322 19.2365833 11.0688926 18.9137485 11.5180115 16.9005285 11.9671304 18.9137485 12.9713907 19.2365833 12.2447011 20.8036564 12.4162492 23.0163993"></polygon>
                        <polygon id="Star-Copy-21" transform="translate(23.167919, 15.827015) rotate(301.000000) translate(-23.167919, -15.827015) " points="23.1679191 17.8402348 22.2696814 18.8849502 22.4412295 16.6722074 21.7145399 15.1051342 22.7188003 14.7822994 23.1679191 12.7690795 23.617038 14.7822994 24.6212984 15.1051342 23.8946087 16.6722074 24.0661569 18.8849502"></polygon>
                        <polygon id="Star-Copy-20" transform="translate(14.762966, 15.827015) rotate(301.000000) translate(-14.762966, -15.827015) " points="14.7629657 17.8402348 13.8647279 18.8849502 14.0362761 16.6722074 13.3095865 15.1051342 14.3138468 14.7822994 14.7629657 12.7690795 15.2120846 14.7822994 16.2163449 15.1051342 15.4896553 16.6722074 15.6612034 18.8849502"></polygon>
                        <polygon id="Star-Copy-19" transform="translate(42.637644, 12.944016) rotate(301.000000) translate(-42.637644, -12.944016) " points="42.6376444 14.9572364 41.7394066 16.0019518 41.9109548 13.789209 41.1842651 12.2221358 42.1885255 11.899301 42.6376444 9.8860811 43.0867632 11.899301 44.0910236 12.2221358 43.364334 13.789209 43.5358821 16.0019518"></polygon>
                        <polygon id="Star-Copy-18" transform="translate(34.232691, 23.921538) rotate(301.000000) translate(-34.232691, -23.921538) " points="34.2326909 25.9347578 33.3344532 26.9794733 33.5060013 24.7667305 32.7793117 23.1996573 33.783572 22.8768225 34.2326909 20.8636025 34.6818098 22.8768225 35.6860701 23.1996573 34.9593805 24.7667305 35.1309287 26.9794733"></polygon>
                        <polygon id="Star-Copy-17" transform="translate(34.232691, 11.506538) rotate(301.000000) translate(-34.232691, -11.506538) " points="34.2326909 13.5197584 33.3344532 14.5644738 33.5060013 12.351731 32.7793117 10.7846578 33.783572 10.461823 34.2326909 8.44860309 34.6818098 10.461823 35.6860701 10.7846578 34.9593805 12.351731 35.1309287 14.5644738"></polygon>
                        <polygon id="Star-Copy-16" transform="translate(26.412873, 11.506538) rotate(301.000000) translate(-26.412873, -11.506538) " points="26.4128733 13.5197584 25.5146356 14.5644738 25.6861837 12.351731 24.9594941 10.7846578 25.9637545 10.461823 26.4128733 8.44860309 26.8619922 10.461823 27.8662526 10.7846578 27.139563 12.351731 27.3111111 14.5644738"></polygon>
                        <polygon id="Star-Copy-15" transform="translate(18.007920, 11.506538) rotate(301.000000) translate(-18.007920, -11.506538) " points="18.0079199 13.5197584 17.1096821 14.5644738 17.2812303 12.351731 16.5545407 10.7846578 17.558801 10.461823 18.0079199 8.44860309 18.4570388 10.461823 19.4612991 10.7846578 18.7346095 12.351731 18.9061576 14.5644738"></polygon>
                        <polygon id="Star-Copy-14" transform="translate(10.505398, 10.818969) rotate(301.000000) translate(-10.505398, -10.818969) " points="10.5053977 12.8321889 9.6071599 13.8769043 9.77870805 11.6641615 9.05201844 10.0970883 10.0562788 9.77425349 10.5053977 7.76103358 10.9545165 9.77425349 11.9587769 10.0970883 11.2320873 11.6641615 11.4036354 13.8769043"></polygon>
                        <polygon id="Star-Copy-13" transform="translate(37.487302, 8.402502) rotate(301.000000) translate(-37.487302, -8.402502) " points="37.4873018 10.4157218 36.5890641 11.4604372 36.7606122 9.24769442 36.0339226 7.68062126 37.0381829 7.35778644 37.4873018 5.34456652 37.9364207 7.35778644 38.940681 7.68062126 38.2139914 9.24769442 38.3855396 11.4604372"></polygon>
                        <polygon id="Star-Copy-12" transform="translate(29.657828, 7.178020) rotate(301.000000) translate(-29.657828, -7.178020) " points="29.6578275 9.19123955 28.7595898 10.235955 28.9311379 8.02321218 28.2044483 6.45613902 29.2087087 6.13330419 29.6578275 4.12008428 30.1069464 6.13330419 31.1112068 6.45613902 30.3845172 8.02321218 30.5560653 10.235955"></polygon>
                        <polygon id="Star-Copy-11" transform="translate(21.252874, 7.178020) rotate(301.000000) translate(-21.252874, -7.178020) " points="21.2528741 9.19123955 20.3546363 10.235955 20.5261845 8.02321218 19.7994949 6.45613902 20.8037552 6.13330419 21.2528741 4.12008428 21.701993 6.13330419 22.7062533 6.45613902 21.9795637 8.02321218 22.1511119 10.235955"></polygon>
                        <polygon id="Star-Copy-10" transform="translate(13.223825, 7.178020) rotate(301.000000) translate(-13.223825, -7.178020) " points="13.2238254 9.19123955 12.3255876 10.235955 12.4971358 8.02321218 11.7704462 6.45613902 12.7747065 6.13330419 13.2238254 4.12008428 13.6729443 6.13330419 14.6772046 6.45613902 13.950515 8.02321218 14.1220631 10.235955"></polygon>
                        <polygon id="Star-Copy-8" transform="translate(41.539049, 5.937611) rotate(301.000000) translate(-41.539049, -5.937611) " points="41.5390485 7.95083132 40.6408108 8.99554676 40.8123589 6.78280395 40.0856693 5.21573079 41.0899296 4.89289596 41.5390485 2.87967604 41.9881674 4.89289596 42.9924277 5.21573079 42.2657381 6.78280395 42.4372863 8.99554676"></polygon>
                        <polygon id="Star-Copy-42" transform="translate(48.846055, 17.575917) rotate(301.000000) translate(-48.846055, -17.575917) " points="48.8460553 19.5891372 47.9478175 20.6338526 48.1193657 18.4211098 47.3926761 16.8540366 48.3969364 16.5312018 48.8460553 14.5179819 49.2951742 16.5312018 50.2994345 16.8540366 49.5727449 18.4211098 49.7442931 20.6338526"></polygon>
                        <polygon id="Star-Copy-42" transform="translate(47.970145, 10.643910) rotate(301.000000) translate(-47.970145, -10.643910) " points="47.9701447 12.6571299 47.0719069 13.7018454 47.2434551 11.4891025 46.5167655 9.92202938 47.5210258 9.59919456 47.9701447 7.58597464 48.4192636 9.59919456 49.4235239 9.92202938 48.6968343 11.4891025 48.8683824 13.7018454"></polygon>
                        <polygon id="Star-Copy-42" transform="translate(47.723523, 4.846694) rotate(301.000000) translate(-47.723523, -4.846694) " points="47.7235234 6.85991407 46.8252856 7.90462951 46.9968338 5.69188669 46.2701442 4.12481353 47.2744045 3.80197871 47.7235234 1.78875879 48.1726423 3.80197871 49.1769026 4.12481353 48.450213 5.69188669 48.6217611 7.90462951"></polygon>
                        <polygon id="Star-Copy-6" transform="translate(32.902782, 3.054613) rotate(301.000000) translate(-32.902782, -3.054613) " points="32.9027818 5.06783291 32.004544 6.11254835 32.1760921 3.89980554 31.4494025 2.33273238 32.4536629 2.00989755 32.9027818 -0.0033223662 33.3519006 2.00989755 34.356161 2.33273238 33.6294714 3.89980554 33.8010195 6.11254835"></polygon>
                        <polygon id="Star-Copy-4" transform="translate(23.922349, 3.054613) rotate(301.000000) translate(-23.922349, -3.054613) " points="23.9223491 5.06783291 23.0241114 6.11254835 23.1956595 3.89980554 22.4689699 2.33273238 23.4732302 2.00989755 23.9223491 -0.0033223662 24.371468 2.00989755 25.3757283 2.33273238 24.6490387 3.89980554 24.8205869 6.11254835"></polygon>
                        <polygon id="Star-Copy-2" transform="translate(15.517396, 3.054613) rotate(301.000000) translate(-15.517396, -3.054613) " points="15.5173957 5.06783291 14.6191579 6.11254835 14.7907061 3.89980554 14.0640164 2.33273238 15.0682768 2.00989755 15.5173957 -0.0033223662 15.9665146 2.00989755 16.9707749 2.33273238 16.2440853 3.89980554 16.4156334 6.11254835"></polygon>
                        <polygon id="Star-Copy" transform="translate(7.915288, 3.189344) rotate(301.000000) translate(-7.915288, -3.189344) " points="7.91528825 5.2025637 7.01705049 6.24727914 7.18859864 4.03453633 6.46190903 2.46746316 7.46616937 2.14462834 7.91528825 0.131408423 8.36440713 2.14462834 9.36866748 2.46746316 8.64197787 4.03453633 8.81352601 6.24727914"></polygon>
                    </g>
                    <g id="Pole" transform="translate(16.874172, 0.000000)">
                        <path d="M3.24503311,6.10405644 C5.40838852,5.39141938 6.49006623,4.43795753 6.49006623,3.24367089 C6.49006623,1.45224092 5.03721541,0.0126705894 3.24503311,0.0126705894 C1.45285081,0.0126705894 0,1.45224092 0,3.24367089 C0,4.43795753 1.0816777,5.39141938 3.24503311,6.10405644 Z" id="Oval-10" fill="url(#radialGradient-18)"></path>
                        <polygon id="Rectangle-2" fill="url(#radialGradient-19)" transform="translate(79.184354, 55.460384) rotate(-54.000000) translate(-79.184354, -55.460384) " points="76.3322036 -33.8893971 77.3482233 -33.54387 82.0365037 144.810166 77.4232448 143.943964"></polygon>
                        <path d="M6.99710265,5.27349931 C29.8760141,31.3750698 47.4076435,48.7903725 59.5919909,57.5194076 C71.7763382,66.2484427 91.7687844,75.7159071 119.569329,85.9218008" id="Path-62" stroke="#000000"></path>
                    </g>
                </g>
            </g>
            <g id="Wall-Street" filter="url(#filter-20)" transform="translate(58.768433, 178.013710)">
                <g id="Sign">
                    <rect id="Rectangle-22" fill="#D6CDC2" x="248.710784" y="2.59073734" width="82.9035948" height="81.6082261"></rect>
                    <rect id="Rectangle-23" fill="url(#radialGradient-21)" transform="translate(316.717639, 56.996221) rotate(-5.000000) translate(-316.717639, -56.996221) " x="313.479218" y="29.7934794" width="6.47684334" height="54.4054841" rx="1"></rect>
                    <rect id="Rectangle-23" fill="url(#radialGradient-22)" transform="translate(309.426228, 59.003118) rotate(-5.000000) translate(-309.426228, -59.003118) " x="306.835491" y="33.7434287" width="5.18147467" height="50.5193781" rx="1"></rect>
                    <rect id="Rectangle-23" fill="url(#radialGradient-23)" transform="translate(303.373736, 59.069426) rotate(-5.000000) translate(-303.373736, -59.069426) " x="301.430683" y="36.400474" width="3.886106" height="45.3379034" rx="1"></rect>
                    <rect id="Rectangle-23" fill="url(#radialGradient-24)" transform="translate(298.334366, 55.909635) rotate(-5.000000) translate(-298.334366, -55.909635) " x="297.038997" y="39.0698424" width="2.59073734" height="33.6795854" rx="1"></rect>
                    <rect id="Rectangle-23" fill="url(#radialGradient-25)" transform="translate(294.421016, 50.814185) rotate(-5.000000) translate(-294.421016, -50.814185) " x="293.773331" y="41.7466048" width="1.29536867" height="18.1351614" rx="0.647684334"></rect>
                    <rect id="Rectangle-4" fill="url(#radialGradient-26)" transform="translate(306.190936, 30.407314) rotate(-31.000000) translate(-306.190936, -30.407314) " x="287.40809" y="29.1119455" width="37.5656914" height="2.59073734" rx="1"></rect>
                    <polygon id="Path-2" fill="url(#radialGradient-27)" points="284.755936 29.2242256 293.559129 13.8809379 320.077502 12.2250418 283.326476 36.7383758"></polygon>
                    <polygon id="Path-2" fill="url(#radialGradient-28)" points="286.158645 28.6217784 293.410401 15.649107 315.25529 14.2490554 284.981107 34.974954"></polygon>
                    <path d="M249.541262,51.55289 L257.855531,26.2065479 L263.887091,22.3324594 L263.704297,19.2540613 L265.224837,15.3066024 L267.350052,11.886652 L272.860428,11.363571 L275.112143,13.5077604 L276.211436,16.1111478 L278.231654,17.1402322 L278.281622,18.9182016 L276.232941,18.8966965 L275.809163,20.0655643 L275.079886,22.0086173 L275.690885,23.541175 L276.805357,25.3520346 L285.683187,30.0502761 C288.428344,36.4794199 290.393957,41.266212 291.580024,44.4106522 C292.766091,47.5550924 293.572112,50.1163129 293.998087,52.0943136 C295.483604,54.3781231 296.408325,56.0799811 296.772251,57.1998878 C297.136177,58.3197944 297.136177,59.4635729 296.772251,60.6312232 L300.993584,63.9499729 L299.530602,65.8772133 L297.829798,64.6242225 L286.468757,49.5586041 C288.678604,54.873315 290.63768,58.8110755 292.345986,61.3718857 C294.054292,63.9326959 296.355132,66.3806981 299.248505,68.7158923 C300.823834,71.1612702 301.798102,72.9784549 302.171307,74.1674463 C302.544512,75.3564377 302.544512,76.6431622 302.171307,78.0276196 L302.171307,85.2350054 L246.092849,85.2350054 C246.418296,74.291959 246.912493,65.5827973 247.575439,59.1075205 C248.238385,52.6322437 248.89366,50.1140335 249.541262,51.55289 Z" id="StreetMan" fill="url(#radialGradient-29)"></path>
                    <rect id="Rectangle-22" fill="#1E1D1C" opacity="0.540024909" x="248.710784" y="2.59073734" width="82.9035948" height="81.6082261"></rect>
                    <polygon id="Rectangle-21" fill-opacity="0.5" fill="#FFFFFF" points="0 0 331.614379 2.90951947 331.614379 85.4943321 0 85.4943321"></polygon>
                    <g id="Rectangle">
                        <use fill="url(#radialGradient-30)" xlink:href="#path-31"></use>
                        <use fill-opacity="0.799999952" fill="#4B4949" xlink:href="#path-31"></use>
                    </g>
                </g>
                <g id="Lettering" transform="translate(25.907373, 3.886106)">
                    <polygon id="Path-37" fill="#D2C3A9" points="0.0506003386 21.212927 9.00559526 63.5426402 16.7032093 63.5426402 23.7176437 34.5100634 30.6998579 63.4699022 39.0267762 63.363009 47.4352874 21.151574 39.2635114 21.151574 34.5568687 47.5782334 27.8403063 21.1654891 20.2635355 21.1654891 13.8056699 47.7774722 9.00559526 21.212927"></polygon>
                    <g id="Path-43" transform="translate(46.633272, 20.725899)">
                        <mask id="mask-33" fill="white">
                            <use xlink:href="#path-32"></use>
                        </mask>
                        <use id="Mask" fill="#D2C3A9" xlink:href="#path-32"></use>
                    </g>
                    <polygon id="Path-36" fill="#D2C3A9" points="59.5958138 9.75637779 68.3269022 18.7075777 70.760146 16.43752 66.2971961 11.5185346 75.5102528 11.5185346 75.5102528 7.97777589 66.2971961 7.97777589 70.9524273 3.11887837 68.6874296 0.786202761"></polygon>
                    <polygon id="Path-44" fill="#D2C3A9" points="93.2665441 20.7258987 93.2665441 63.1753902 123.051565 63.1753902 123.051565 55.0191216 101.842037 55.0191216 101.842037 20.7258987"></polygon>
                    <polygon id="Path-44-Copy" fill="#D2C3A9" points="129.536867 20.7258987 129.536867 63.1753902 159.321887 63.1753902 159.321887 55.0191216 138.112359 55.0191216 138.112359 20.7258987"></polygon>
                    <path d="M163.414742,38.5868695 L166.27714,36.049895 C167.647989,37.5883417 168.919006,38.4339999 170.090192,38.5868695 C171.261377,38.739739 172.748184,38.739739 174.550612,38.5868695 C175.404592,37.309217 175.750678,36.4635588 175.588867,36.049895 C175.427057,35.6362312 174.884158,34.9516507 173.960169,33.9961537 C170.469119,33.1983704 167.908109,32.2857722 166.27714,31.2583592 C164.646171,30.2309461 163.80104,28.9978791 163.741747,27.5591582 L164.021946,24.8963154 C164.9361,23.6340694 165.687831,22.7453483 166.27714,22.2301519 C166.866449,21.7149555 167.533003,21.3637575 168.276802,21.176558 C169.594827,20.9280074 170.583484,20.7986603 171.242773,20.7885166 C171.902062,20.7783729 172.907217,20.8770436 174.258237,21.0845286 C175.493152,21.4994749 176.392626,21.8813493 176.956658,22.2301519 C177.52069,22.5789545 178.238741,23.2374441 179.110809,24.2056207 L176.149108,27.1962589 C175.291968,26.2590529 174.562322,25.6571724 173.960169,25.3906174 C173.358016,25.1240624 172.308639,24.9384224 170.812037,24.8336974 C170.131089,24.9047246 169.67168,25.0174685 169.433811,25.1719291 C169.195941,25.3263897 168.916691,25.6932948 168.596059,26.2726446 L168.276802,27.5591582 C168.379824,27.9542072 168.486242,28.1936627 168.596059,28.2775249 C168.760783,28.403318 170.287798,29.2038789 170.812037,29.3578421 C171.092553,29.4402264 172.341561,29.5169554 174.550612,29.9856025 C176.759663,30.4542496 178.315237,31.7092127 178.860338,32.3348814 C179.223738,32.7519938 179.501302,33.4407909 179.693029,34.4012727 C179.842521,35.3447074 179.919265,36.0222775 179.923261,36.4339832 C179.927257,36.8456888 179.862689,37.4226381 179.729556,38.164831 C179.327743,39.402711 178.897376,40.2159006 178.438457,40.6043998 C177.979538,40.992899 176.783789,41.5563022 174.851209,42.2946093 C173.566381,42.5645036 172.602867,42.6961699 171.960665,42.6896082 C171.318464,42.6830464 170.476179,42.6830464 169.433811,42.6896082 C167.492381,41.9801084 166.022389,41.2850389 165.023833,40.6043998 C164.025277,39.9237608 163.488914,39.2512506 163.414742,38.5868695 Z" id="Path-45" fill="#D2C3A9"></path>
                    <path d="M94.5619128,2.86150692 L96.6994608,5.30613578 C97.4212495,4.70722577 98.0049981,4.29978763 98.4507069,4.08382135 C98.8964157,3.86785507 99.4415817,3.72828247 100.086205,3.66510355 C101.080397,3.91906142 101.654131,4.23141309 101.807407,4.60215857 C101.960682,4.97290405 101.88494,5.86510398 101.58018,7.27875835 C99.3791084,8.88617861 97.8740119,10.1890846 97.0648902,11.1874764 C96.2557684,12.1858681 95.5580636,13.6010437 94.9717755,15.4330029 L94.9717755,19.088403 L105.210754,19.088403 L105.151457,15.9753753 L98.4524463,15.781829 C98.5931961,15.0849937 98.7767805,14.6032891 99.0031994,14.336715 C99.2296183,14.0701409 101.015599,12.2329796 104.361143,8.8252312 C104.89272,7.51852672 105.175923,6.61894758 105.210754,6.12649377 C105.245585,5.63403996 105.101268,4.569957 104.777805,2.93424491 C104.0159,1.78478952 103.374382,1.04117538 102.853253,0.703402479 C102.071558,0.196743124 100.526034,0.00459441273 99.8888729,5.77722991e-05 C98.6795897,-0.00855242291 96.9039363,0.94526396 94.5619128,2.86150692 Z" id="Path-38-Copy" fill="#D2C3A9"></path>
                    <polygon id="Path-49" fill="#D2C3A9" points="108.006423 7.93065432 108.006423 11.3479229 114.917836 11.3479229 114.917836 7.93065432"></polygon>
                    <polygon id="Path-46" fill="#D2C3A9" points="181.867263 21.1680192 181.867263 25.2858025 187.961285 25.2858025 187.961285 42.1981902 192.51637 42.1981902 192.51637 25.2858025 198.222652 25.2858025 198.19615 21.1680192"></polygon>
                    <path d="M80.3128574,2.86150692 L82.4504055,5.30613578 C83.1721941,4.70722577 83.7559428,4.29978763 84.2016516,4.08382135 C84.6473604,3.86785507 85.1925263,3.72828247 85.8371494,3.66510355 C86.8313421,3.91906142 87.4050761,4.23141309 87.5583515,4.60215857 C87.711627,4.97290405 87.6358846,5.86510398 87.3311244,7.27875835 C85.1300531,8.88617861 83.6249565,10.1890846 82.8158348,11.1874764 C82.0067131,12.1858681 81.3090082,13.6010437 80.7227202,15.4330029 L80.7227202,19.088403 L90.9616987,19.088403 L90.9024014,15.9753753 L84.203391,15.781829 C84.3441408,15.0849937 84.5277251,14.6032891 84.754144,14.336715 C84.980563,14.0701409 86.7665441,12.2329796 90.1120874,8.8252312 C90.6436643,7.51852672 90.926868,6.61894758 90.9616987,6.12649377 C90.9965293,5.63403996 90.852213,4.569957 90.5287495,2.93424491 C89.7668443,1.78478952 89.1253268,1.04117538 88.6041973,0.703402479 C87.822503,0.196743124 86.2769788,0.00459441273 85.6398175,5.77722991e-05 C84.4305343,-0.00855242291 82.654881,0.94526396 80.3128574,2.86150692 Z" id="Path-38" fill="#D2C3A9"></path>
                    <path d="M118.855452,15.1769391 L116.962525,17.3584462 C118.153989,18.3994663 119.031694,19.0505767 119.59564,19.3117774 C120.159585,19.572978 121.059902,19.7453881 122.296591,19.8290077 C124.080764,19.5213833 125.380823,19.0693009 126.19677,18.4727605 C127.012717,17.8762201 127.692237,16.8810274 128.235331,15.4871824 C128.469369,14.3043117 128.578159,13.4146945 128.561703,12.8183308 C128.545248,12.2219671 128.387543,11.3389385 128.08859,10.1692449 C127.788768,8.9576484 127.158162,8.17091855 126.19677,7.80905538 C125.235379,7.44719222 123.468004,7.44719222 120.894645,7.80905538 L120.894645,3.88313529 L126.974292,3.88313529 L126.974292,0.619612994 L117.663339,0.619612994 L117.663339,10.1692449 C118.184265,10.6846513 118.581636,11.0076501 118.855452,11.1382414 C119.129268,11.2688327 119.670375,11.4555796 120.478774,11.698482 C121.574777,11.0253766 122.33616,10.6888317 122.762925,10.6888472 C123.403071,10.6888704 124.631243,10.6830653 125.068699,11.4878581 C125.360336,12.0243867 125.267094,13.0004988 124.788974,14.4161946 C124.31401,15.5108389 123.63866,16.1143007 122.762925,16.2265798 C121.887189,16.338859 120.584698,15.9889787 118.855452,15.1769391 Z" id="Path-47" fill="#D2C3A9"></path>
                    <polygon id="Path-48" fill="#D2C3A9" points="129.944358 3.14228103 131.269138 3.15840989 132.75995 0.721212951 135.776995 0.721212951 135.776995 19.2794409 132.294317 19.2794409 132.294317 5.5029348 129.912224 5.5029348"></polygon>
                </g>
                <g id="Sign-Shadows">
                    <g id="Rectangle-2">
                        <use fill="#FFFFF9" fill-rule="evenodd" xlink:href="#path-34"></use>
                        <use fill="black" fill-opacity="1" filter="url(#filter-35)" xlink:href="#path-34"></use>
                    </g>
                    <g id="Rectangle-2">
                        <use fill="#FFFFF9" fill-rule="evenodd" xlink:href="#path-36"></use>
                        <use fill="black" fill-opacity="1" filter="url(#filter-37)" xlink:href="#path-36"></use>
                    </g>
                    <rect id="Rectangle-3" fill="#0F0D09" opacity="0.455446105" style="mix-blend-mode: darken;" x="0" y="6.47684334" width="248.710784" height="3.886106"></rect>
                    <rect id="Rectangle-3-Copy" fill="#969493" opacity="0.455446105" style="mix-blend-mode: luminosity;" x="0" y="75.1313828" width="250.006153" height="3.886106"></rect>
                    <rect id="Rectangle-5" fill="#AEACAC" x="248.710784" y="6.47684334" width="82.9035948" height="3.886106"></rect>
                    <rect id="Rectangle-5" fill="url(#linearGradient-38)" style="mix-blend-mode: soft-light;" x="248.710784" y="75.1313828" width="82.9035948" height="3.886106"></rect>
                </g>
            </g>
        </g>
    </g>
</svg>